<?xml version="1.0" encoding="UTF-8" standalone="no"?>
<!DOCTYPE svg PUBLIC "-//W3C//DTD SVG 1.1//EN"
 "http://www.w3.org/Graphics/SVG/1.1/DTD/svg11.dtd">
<!-- Generated by graphviz version 3.0.0 (20220413.0106)
 -->
<!-- Title: EthercatLifeCycleNode::EthercatLifeCycle Pages: 1 -->
<svg width="312pt" height="106pt"
 viewBox="0.00 0.00 311.50 106.00" xmlns="http://www.w3.org/2000/svg" xmlns:xlink="http://www.w3.org/1999/xlink">
<g id="graph0" class="graph" transform="scale(1 1) rotate(0) translate(4 102)">
<title>EthercatLifeCycleNode::EthercatLifeCycle</title>
<!-- Node1 -->
<g id="node1" class="node">
<title>Node1</title>
<g id="a_node1"><a xlink:title=" ">
<polygon fill="#bfbfbf" stroke="black" points="109.5,-0.5 109.5,-30.5 225.5,-30.5 225.5,-0.5 109.5,-0.5"/>
<text text-anchor="start" x="117.5" y="-18.5" font-family="Helvetica,sans-Serif" font-size="10.00">EthercatLifeCycleNode</text>
<text text-anchor="middle" x="167.5" y="-7.5" font-family="Helvetica,sans-Serif" font-size="10.00">::EthercatLifeCycle</text>
</a>
</g>
</g>
<!-- Node2 -->
<g id="node2" class="node">
<title>Node2</title>
<g id="a_node2"><a xlink:href="structDataReceived.html" target="_top" xlink:title="Structure for data to be received from slaves.">
<polygon fill="none" stroke="black" points="0,-78.5 0,-97.5 77,-97.5 77,-78.5 0,-78.5"/>
<text text-anchor="middle" x="38.5" y="-85.5" font-family="Helvetica,sans-Serif" font-size="10.00">DataReceived</text>
</a>
</g>
</g>
<!-- Node2&#45;&gt;Node1 -->
<g id="edge1" class="edge">
<title>Node2&#45;&gt;Node1</title>
<path fill="none" stroke="#9a32cd" stroke-dasharray="5,2" d="M43.29,-68.13C45.89,-61.27 49.78,-53.98 55.5,-49 70.47,-35.97 90.39,-28.16 109.28,-23.47"/>
<polygon fill="#9a32cd" stroke="#9a32cd" points="39.8,-67.59 40.2,-78.18 46.49,-69.65 39.8,-67.59"/>
<text text-anchor="middle" x="90" y="-52" font-family="Helvetica,sans-Serif" font-size="10.00"> received_data_</text>
</g>
<!-- Node3 -->
<g id="node3" class="node">
<title>Node3</title>
<g id="a_node3"><a xlink:href="structDataSent.html" target="_top" xlink:title="Structure for data to be sent to slaves.">
<polygon fill="none" stroke="black" points="101,-78.5 101,-97.5 158,-97.5 158,-78.5 101,-78.5"/>
<text text-anchor="middle" x="129.5" y="-85.5" font-family="Helvetica,sans-Serif" font-size="10.00">DataSent</text>
</a>
</g>
</g>
<!-- Node3&#45;&gt;Node1 -->
<g id="edge2" class="edge">
<title>Node3&#45;&gt;Node1</title>
<path fill="none" stroke="#9a32cd" stroke-dasharray="5,2" d="M128.29,-68.02C128.59,-61.7 129.69,-54.81 132.5,-49 135.89,-41.98 141.52,-35.74 147.27,-30.64"/>
<polygon fill="#9a32cd" stroke="#9a32cd" points="124.8,-68.45 128.46,-78.39 131.8,-68.34 124.8,-68.45"/>
<text text-anchor="middle" x="158" y="-52" font-family="Helvetica,sans-Serif" font-size="10.00"> sent_data_</text>
</g>
<!-- Node4 -->
<g id="node4" class="node">
<title>Node4</title>
<g id="a_node4"><a xlink:href="structController.html" target="_top" xlink:title="Xbox Controller values.">
<polygon fill="none" stroke="black" points="176.5,-78.5 176.5,-97.5 234.5,-97.5 234.5,-78.5 176.5,-78.5"/>
<text text-anchor="middle" x="205.5" y="-85.5" font-family="Helvetica,sans-Serif" font-size="10.00">Controller</text>
</a>
</g>
</g>
<!-- Node4&#45;&gt;Node1 -->
<g id="edge3" class="edge">
<title>Node4&#45;&gt;Node1</title>
<path fill="none" stroke="#9a32cd" stroke-dasharray="5,2" d="M195.97,-69.32C189.51,-57.34 181.09,-41.72 175.09,-30.58"/>
<polygon fill="#9a32cd" stroke="#9a32cd" points="193.01,-71.21 200.84,-78.36 199.18,-67.89 193.01,-71.21"/>
<text text-anchor="middle" x="213.5" y="-52" font-family="Helvetica,sans-Serif" font-size="10.00"> controller_</text>
</g>
<!-- Node5 -->
<g id="node5" class="node">
<title>Node5</title>
<g id="a_node5"><a xlink:href="classTiming.html" target="_top" xlink:title="Contains Timing measurement related functions.">
<polygon fill="none" stroke="black" points="253.5,-78.5 253.5,-97.5 299.5,-97.5 299.5,-78.5 253.5,-78.5"/>
<text text-anchor="middle" x="276.5" y="-85.5" font-family="Helvetica,sans-Serif" font-size="10.00">Timing</text>
</a>
</g>
</g>
<!-- Node5&#45;&gt;Node1 -->
<g id="edge4" class="edge">
<title>Node5&#45;&gt;Node1</title>
<path fill="none" stroke="#9a32cd" stroke-dasharray="5,2" d="M263.98,-70.57C257.81,-63.27 249.89,-54.99 241.5,-49 231.22,-41.66 219.03,-35.47 207.53,-30.52"/>
<polygon fill="#9a32cd" stroke="#9a32cd" points="261.36,-72.89 270.35,-78.49 266.81,-68.51 261.36,-72.89"/>
<text text-anchor="middle" x="278" y="-52" font-family="Helvetica,sans-Serif" font-size="10.00"> timer_info_</text>
</g>
</g>
</svg>
