<?xml version="1.0" encoding="UTF-8" standalone="no"?>
<!DOCTYPE svg PUBLIC "-//W3C//DTD SVG 1.1//EN"
 "http://www.w3.org/Graphics/SVG/1.1/DTD/svg11.dtd">
<!-- Generated by graphviz version 2.43.0 (0)
 -->
<!-- Title: EthercatLifeCycleNode::EthercatLifeCycle Pages: 1 -->
<svg width="347pt" height="106pt"
 viewBox="0.00 0.00 347.00 106.00" xmlns="http://www.w3.org/2000/svg" xmlns:xlink="http://www.w3.org/1999/xlink">
<g id="graph0" class="graph" transform="scale(1 1) rotate(0) translate(4 102)">
<title>EthercatLifeCycleNode::EthercatLifeCycle</title>
<!-- Node1 -->
<g id="node1" class="node">
<title>Node1</title>
<g id="a_node1"><a xlink:title=" ">
<polygon fill="#bfbfbf" stroke="black" points="109,-0.5 109,-30.5 237,-30.5 237,-0.5 109,-0.5"/>
<text text-anchor="start" x="117" y="-18.5" font-family="Helvetica,sans-Serif" font-size="10.00">EthercatLifeCycleNode</text>
<text text-anchor="middle" x="173" y="-7.5" font-family="Helvetica,sans-Serif" font-size="10.00">::EthercatLifeCycle</text>
</a>
</g>
</g>
<!-- Node2 -->
<g id="node2" class="node">
<title>Node2</title>
<g id="a_node2"><a xlink:href="structDataSent.html" target="_top" xlink:title="Structure for data to be sent to slaves.">
<polygon fill="none" stroke="black" points="0,-78.5 0,-97.5 62,-97.5 62,-78.5 0,-78.5"/>
<text text-anchor="middle" x="31" y="-85.5" font-family="Helvetica,sans-Serif" font-size="10.00">DataSent</text>
</a>
</g>
</g>
<!-- Node2&#45;&gt;Node1 -->
<g id="edge1" class="edge">
<title>Node2&#45;&gt;Node1</title>
<path fill="none" stroke="#9a32cd" stroke-dasharray="5,2" d="M40.22,-69.79C44.94,-62.43 51.33,-54.32 59,-49 73.71,-38.79 91.59,-31.77 108.78,-26.94"/>
<polygon fill="#9a32cd" stroke="#9a32cd" points="37.18,-68.06 35.14,-78.45 43.22,-71.6 37.18,-68.06"/>
<text text-anchor="middle" x="87.5" y="-52" font-family="Helvetica,sans-Serif" font-size="10.00"> sent_data_</text>
</g>
<!-- Node3 -->
<g id="node3" class="node">
<title>Node3</title>
<g id="a_node3"><a xlink:href="structDataReceived.html" target="_top" xlink:title="Structure for data to be received from slaves.">
<polygon fill="none" stroke="black" points="80.5,-78.5 80.5,-97.5 165.5,-97.5 165.5,-78.5 80.5,-78.5"/>
<text text-anchor="middle" x="123" y="-85.5" font-family="Helvetica,sans-Serif" font-size="10.00">DataReceived</text>
</a>
</g>
</g>
<!-- Node3&#45;&gt;Node1 -->
<g id="edge2" class="edge">
<title>Node3&#45;&gt;Node1</title>
<path fill="none" stroke="#9a32cd" stroke-dasharray="5,2" d="M120.1,-68.28C119.95,-61.83 120.8,-54.77 124,-49 128.15,-41.5 134.86,-35.42 141.99,-30.64"/>
<polygon fill="#9a32cd" stroke="#9a32cd" points="116.62,-68.64 121.06,-78.26 123.59,-67.97 116.62,-68.64"/>
<text text-anchor="middle" x="163" y="-52" font-family="Helvetica,sans-Serif" font-size="10.00"> received_data_</text>
</g>
<!-- Node4 -->
<g id="node4" class="node">
<title>Node4</title>
<g id="a_node4"><a xlink:href="structController.html" target="_top" xlink:title="Xbox Controller values.">
<polygon fill="none" stroke="black" points="191.5,-78.5 191.5,-97.5 256.5,-97.5 256.5,-78.5 191.5,-78.5"/>
<text text-anchor="middle" x="224" y="-85.5" font-family="Helvetica,sans-Serif" font-size="10.00">Controller</text>
</a>
</g>
</g>
<!-- Node4&#45;&gt;Node1 -->
<g id="edge3" class="edge">
<title>Node4&#45;&gt;Node1</title>
<path fill="none" stroke="#9a32cd" stroke-dasharray="5,2" d="M214.8,-69.41C211.11,-62.82 206.63,-55.39 202,-49 197.39,-42.63 191.74,-36.07 186.65,-30.53"/>
<polygon fill="#9a32cd" stroke="#9a32cd" points="211.74,-71.11 219.58,-78.24 217.9,-67.78 211.74,-71.11"/>
<text text-anchor="middle" x="235.5" y="-52" font-family="Helvetica,sans-Serif" font-size="10.00"> controller_</text>
</g>
<!-- Node5 -->
<g id="node5" class="node">
<title>Node5</title>
<g id="a_node5"><a xlink:href="classTiming.html" target="_top" xlink:title=" ">
<polygon fill="none" stroke="black" points="277,-78.5 277,-97.5 327,-97.5 327,-78.5 277,-78.5"/>
<text text-anchor="middle" x="302" y="-85.5" font-family="Helvetica,sans-Serif" font-size="10.00">Timing</text>
</a>
</g>
</g>
<!-- Node5&#45;&gt;Node1 -->
<g id="edge4" class="edge">
<title>Node5&#45;&gt;Node1</title>
<path fill="none" stroke="#9a32cd" stroke-dasharray="5,2" d="M289.7,-70.26C283.57,-62.89 275.63,-54.65 267,-49 255.3,-41.34 241.59,-35.27 228.32,-30.56"/>
<polygon fill="#9a32cd" stroke="#9a32cd" points="287.07,-72.58 295.99,-78.29 292.58,-68.26 287.07,-72.58"/>
<text text-anchor="middle" x="309.5" y="-52" font-family="Helvetica,sans-Serif" font-size="10.00"> timer_info_</text>
</g>
</g>
</svg>
