<?xml version="1.0" encoding="UTF-8" standalone="no"?>
<!DOCTYPE svg PUBLIC "-//W3C//DTD SVG 1.1//EN"
 "http://www.w3.org/Graphics/SVG/1.1/DTD/svg11.dtd">
<!-- Generated by graphviz version 2.43.0 (0)
 -->
<!-- Title: EthercatCommunication::EthercatNode Pages: 1 -->
<!--zoomable 173 -->
<svg id="main" version="1.1" xmlns="http://www.w3.org/2000/svg" xmlns:xlink="http://www.w3.org/1999/xlink" xml:space="preserve" onload="init(evt)">
<style type="text/css"><![CDATA[
.edge:hover path { stroke: red; }
.edge:hover polygon { stroke: red; fill: red; }
]]></style>
<script type="text/javascript"><![CDATA[
var edges = document.getElementsByTagName('g');
if (edges && edges.length) {
  for (var i=0;i<edges.length;i++) {
    if (edges[i].id.substr(0,4)=='edge') {
      edges[i].setAttribute('class','edge');
    }
  }
}
]]></script>
        <defs>
                <circle id="rim" cx="0" cy="0" r="7"/>
                <circle id="rim2" cx="0" cy="0" r="3.5"/>
                <g id="zoomPlus">
                        <use xlink:href="#rim" fill="#404040">
                                <set attributeName="fill" to="#808080" begin="zoomplus.mouseover" end="zoomplus.mouseout"/>
                        </use>
                        <path d="M-4,0h8M0,-4v8" fill="none" stroke="white" stroke-width="1.5" pointer-events="none"/>
                </g>
                <g id="zoomMin">
                        <use xlink:href="#rim" fill="#404040">
                                <set attributeName="fill" to="#808080" begin="zoomminus.mouseover" end="zoomminus.mouseout"/>
                        </use>
                        <path d="M-4,0h8" fill="none" stroke="white" stroke-width="1.5" pointer-events="none"/>
                </g>
                <g id="dirArrow">
                        <path fill="none" stroke="white" stroke-width="1.5" d="M0,-3.0v7 M-2.5,-0.5L0,-3.0L2.5,-0.5"/>
                </g>
               <g id="resetDef">
                       <use xlink:href="#rim2" fill="#404040">
                               <set attributeName="fill" to="#808080" begin="reset.mouseover" end="reset.mouseout"/>
                       </use>
               </g>
        </defs>

<script type="text/javascript">
var viewWidth = 541;
var viewHeight = 173;
var sectionId = 'dynsection-0';
</script>
<script xlink:href="svgpan.js"/>
<svg id="graph" class="graph">
<g id="viewport">
<title>EthercatCommunication::EthercatNode</title>
<!-- Node1 -->
<g id="node1" class="node">
<title>Node1</title>
<g id="a_node1"><a xlink:title=" ">
<polygon fill="#bfbfbf" stroke="black" points="210.5,-0.5 210.5,-30.5 344.5,-30.5 344.5,-0.5 210.5,-0.5"/>
<text text-anchor="start" x="218.5" y="-18.5" font-family="Helvetica,sans-Serif" font-size="10.00">EthercatCommunication</text>
<text text-anchor="middle" x="277.5" y="-7.5" font-family="Helvetica,sans-Serif" font-size="10.00">::EthercatNode</text>
</a>
</g>
</g>
<!-- Node2 -->
<g id="node2" class="node">
<title>Node2</title>
<g id="a_node2"><a xlink:href="classEthercatSlave.html" target="_top" xlink:title=" ">
<polygon fill="none" stroke="black" points="235.5,-78.5 235.5,-97.5 319.5,-97.5 319.5,-78.5 235.5,-78.5"/>
<text text-anchor="middle" x="277.5" y="-85.5" font-family="Helvetica,sans-Serif" font-size="10.00">EthercatSlave</text>
</a>
</g>
</g>
<!-- Node2&#45;&gt;Node1 -->
<g id="edge1" class="edge">
<title>Node2&#45;&gt;Node1</title>
<path fill="none" stroke="#9a32cd" stroke-dasharray="5,2" d="M277.5,-68.24C277.5,-56.41 277.5,-41.38 277.5,-30.58"/>
<polygon fill="#9a32cd" stroke="#9a32cd" points="274,-68.36 277.5,-78.36 281,-68.36 274,-68.36"/>
<text text-anchor="middle" x="297.5" y="-52" font-family="Helvetica,sans-Serif" font-size="10.00"> slaves_</text>
</g>
<!-- Node3 -->
<g id="node3" class="node">
<title>Node3</title>
<g id="a_node3"><a xlink:href="structDataReceived.html" target="_top" xlink:title="Structure for data to be received from slaves.">
<polygon fill="none" stroke="black" points="0,-145.5 0,-164.5 85,-164.5 85,-145.5 0,-145.5"/>
<text text-anchor="middle" x="42.5" y="-152.5" font-family="Helvetica,sans-Serif" font-size="10.00">DataReceived</text>
</a>
</g>
</g>
<!-- Node3&#45;&gt;Node2 -->
<g id="edge2" class="edge">
<title>Node3&#45;&gt;Node2</title>
<path fill="none" stroke="#9a32cd" stroke-dasharray="5,2" d="M70.79,-141.36C89.89,-133.21 115.84,-122.89 139.5,-116 171.14,-106.79 207.79,-99.78 235.36,-95.22"/>
<polygon fill="#9a32cd" stroke="#9a32cd" points="69.26,-138.2 61.47,-145.39 72.04,-144.63 69.26,-138.2"/>
<text text-anchor="middle" x="155" y="-119" font-family="Helvetica,sans-Serif" font-size="10.00"> data_</text>
</g>
<!-- Node4 -->
<g id="node4" class="node">
<title>Node4</title>
<g id="a_node4"><a xlink:href="structProfilePosParam.html" target="_top" xlink:title="Parameters that should be specified in position mode.">
<polygon fill="none" stroke="black" points="103,-145.5 103,-164.5 200,-164.5 200,-145.5 103,-145.5"/>
<text text-anchor="middle" x="151.5" y="-152.5" font-family="Helvetica,sans-Serif" font-size="10.00">ProfilePosParam</text>
</a>
</g>
</g>
<!-- Node4&#45;&gt;Node2 -->
<g id="edge3" class="edge">
<title>Node4&#45;&gt;Node2</title>
<path fill="none" stroke="#9a32cd" stroke-dasharray="5,2" d="M164.58,-137.12C171.07,-129.73 179.45,-121.5 188.5,-116 202.71,-107.35 219.89,-101.3 235.35,-97.14"/>
<polygon fill="#9a32cd" stroke="#9a32cd" points="161.57,-135.27 157.9,-145.21 166.97,-139.73 161.57,-135.27"/>
<text text-anchor="middle" x="231" y="-119" font-family="Helvetica,sans-Serif" font-size="10.00"> position_param_</text>
</g>
<!-- Node5 -->
<g id="node5" class="node">
<title>Node5</title>
<g id="a_node5"><a xlink:href="structProfileVelocityParam.html" target="_top" xlink:title="Profile velocity mode configuration parameters.">
<polygon fill="none" stroke="black" points="218,-145.5 218,-164.5 337,-164.5 337,-145.5 218,-145.5"/>
<text text-anchor="middle" x="277.5" y="-152.5" font-family="Helvetica,sans-Serif" font-size="10.00">ProfileVelocityParam</text>
</a>
</g>
</g>
<!-- Node5&#45;&gt;Node2 -->
<g id="edge4" class="edge">
<title>Node5&#45;&gt;Node2</title>
<path fill="none" stroke="#9a32cd" stroke-dasharray="5,2" d="M277.5,-135.04C277.5,-122.67 277.5,-107.12 277.5,-97.63"/>
<polygon fill="#9a32cd" stroke="#9a32cd" points="274,-135.23 277.5,-145.23 281,-135.23 274,-135.23"/>
<text text-anchor="middle" x="320" y="-119" font-family="Helvetica,sans-Serif" font-size="10.00"> velocity_param_</text>
</g>
<!-- Node6 -->
<g id="node6" class="node">
<title>Node6</title>
<g id="a_node6"><a xlink:href="structHomingParam.html" target="_top" xlink:title="Homing mode configuration parameters.">
<polygon fill="none" stroke="black" points="355.5,-145.5 355.5,-164.5 441.5,-164.5 441.5,-145.5 355.5,-145.5"/>
<text text-anchor="middle" x="398.5" y="-152.5" font-family="Helvetica,sans-Serif" font-size="10.00">HomingParam</text>
</a>
</g>
</g>
<!-- Node6&#45;&gt;Node2 -->
<g id="edge5" class="edge">
<title>Node6&#45;&gt;Node2</title>
<path fill="none" stroke="#9a32cd" stroke-dasharray="5,2" d="M387.24,-136.6C381.76,-129.32 374.6,-121.34 366.5,-116 352.48,-106.76 335.16,-100.57 319.54,-96.48"/>
<polygon fill="#9a32cd" stroke="#9a32cd" points="384.64,-138.98 393.24,-145.18 390.38,-134.98 384.64,-138.98"/>
<text text-anchor="middle" x="419.5" y="-119" font-family="Helvetica,sans-Serif" font-size="10.00"> homing_param_</text>
</g>
<!-- Node7 -->
<g id="node7" class="node">
<title>Node7</title>
<g id="a_node7"><a xlink:href="structOffsetPDO.html" target="_top" xlink:title="offset for PDO entries to register PDOs.">
<polygon fill="none" stroke="black" points="464.5,-145.5 464.5,-164.5 532.5,-164.5 532.5,-145.5 464.5,-145.5"/>
<text text-anchor="middle" x="498.5" y="-152.5" font-family="Helvetica,sans-Serif" font-size="10.00">OffsetPDO</text>
</a>
</g>
</g>
<!-- Node7&#45;&gt;Node2 -->
<g id="edge6" class="edge">
<title>Node7&#45;&gt;Node2</title>
<path fill="none" stroke="#9a32cd" stroke-dasharray="5,2" d="M487.52,-137.06C481.63,-129.38 473.7,-120.93 464.5,-116 440.14,-102.94 366.84,-95.38 319.57,-91.73"/>
<polygon fill="#9a32cd" stroke="#9a32cd" points="484.82,-139.3 493.44,-145.46 490.54,-135.27 484.82,-139.3"/>
<text text-anchor="middle" x="497" y="-119" font-family="Helvetica,sans-Serif" font-size="10.00"> offset_</text>
</g>
</g>
</svg>
        <g id="navigator" transform="translate(0 0)" fill="#404254">
                <rect fill="#f2f5e9" fill-opacity="0.5" stroke="#606060" stroke-width=".5" x="0" y="0" width="60" height="60"/>
                <use id="zoomplus" xlink:href="#zoomPlus" x="17" y="9" onmousedown="handleZoom(evt,'in')"/>
                <use id="zoomminus" xlink:href="#zoomMin" x="42" y="9" onmousedown="handleZoom(evt,'out')"/>
                <use id="reset" xlink:href="#resetDef" x="30" y="36" onmousedown="handleReset()"/>
                <g id="arrowUp" xlink:href="#dirArrow" transform="translate(30 24)" onmousedown="handlePan(0,-1)">
                  <use xlink:href="#rim" fill="#404040">
                        <set attributeName="fill" to="#808080" begin="arrowUp.mouseover" end="arrowUp.mouseout"/>
                  </use>
                  <path fill="none" stroke="white" stroke-width="1.5" d="M0,-3.0v7 M-2.5,-0.5L0,-3.0L2.5,-0.5"/>
                </g>
                <g id="arrowRight" xlink:href="#dirArrow" transform="rotate(90) translate(36 -43)" onmousedown="handlePan(1,0)">
                  <use xlink:href="#rim" fill="#404040">
                        <set attributeName="fill" to="#808080" begin="arrowRight.mouseover" end="arrowRight.mouseout"/>
                  </use>
                  <path fill="none" stroke="white" stroke-width="1.5" d="M0,-3.0v7 M-2.5,-0.5L0,-3.0L2.5,-0.5"/>
                </g>
                <g id="arrowDown" xlink:href="#dirArrow" transform="rotate(180) translate(-30 -48)" onmousedown="handlePan(0,1)">
                  <use xlink:href="#rim" fill="#404040">
                        <set attributeName="fill" to="#808080" begin="arrowDown.mouseover" end="arrowDown.mouseout"/>
                  </use>
                  <path fill="none" stroke="white" stroke-width="1.5" d="M0,-3.0v7 M-2.5,-0.5L0,-3.0L2.5,-0.5"/>
                </g>
                <g id="arrowLeft" xlink:href="#dirArrow" transform="rotate(270) translate(-36 17)" onmousedown="handlePan(-1,0)">
                  <use xlink:href="#rim" fill="#404040">
                        <set attributeName="fill" to="#808080" begin="arrowLeft.mouseover" end="arrowLeft.mouseout"/>
                  </use>
                  <path fill="none" stroke="white" stroke-width="1.5" d="M0,-3.0v7 M-2.5,-0.5L0,-3.0L2.5,-0.5"/>
                </g>
        </g>
        <svg viewBox="0 0 15 15" width="100%" height="30px" preserveAspectRatio="xMaxYMin meet">
         <g id="arrow_out" transform="scale(0.3 0.3)">
          <a xlink:href="classEthercatCommunication_1_1EthercatNode__coll__graph_org.svg" target="_base">
           <rect id="button" ry="5" rx="5" y="6" x="6" height="38" width="38"
                fill="#f2f5e9" fill-opacity="0.5" stroke="#606060" stroke-width="1.0"/>
           <path id="arrow"
             d="M 11.500037,31.436501 C 11.940474,20.09759 22.043105,11.32322 32.158766,21.979434 L 37.068811,17.246167 C 37.068811,17.246167 37.088388,32 37.088388,32 L 22.160133,31.978069 C 22.160133,31.978069 26.997745,27.140456 26.997745,27.140456 C 18.528582,18.264221 13.291696,25.230495 11.500037,31.436501 z"
             style="fill:#404040;"/>
          </a>
         </g>
        </svg>
</svg>
