<?xml version="1.0" encoding="UTF-8" standalone="no"?>
<!DOCTYPE svg PUBLIC "-//W3C//DTD SVG 1.1//EN"
 "http://www.w3.org/Graphics/SVG/1.1/DTD/svg11.dtd">
<!-- Generated by graphviz version 2.50.0 (20220203.2022)
 -->
<!-- Title: include/ecat_globals.hpp Pages: 1 -->
<svg width="345pt" height="252pt"
 viewBox="0.00 0.00 345.00 252.00" xmlns="http://www.w3.org/2000/svg" xmlns:xlink="http://www.w3.org/1999/xlink">
<g id="graph0" class="graph" transform="scale(1 1) rotate(0) translate(4 248)">
<title>include/ecat_globals.hpp</title>
<!-- Node1 -->
<g id="node1" class="node">
<title>Node1</title>
<g id="a_node1"><a xlink:title=" ">
<polygon fill="#bfbfbf" stroke="black" points="145.5,-224.5 145.5,-243.5 268.5,-243.5 268.5,-224.5 145.5,-224.5"/>
<text text-anchor="middle" x="207" y="-231.5" font-family="Helvetica,sans-Serif" font-size="10.00">include/ecat_globals.hpp</text>
</a>
</g>
</g>
<!-- Node2 -->
<g id="node2" class="node">
<title>Node2</title>
<g id="a_node2"><a xlink:href="ecat__node_8hpp.html" target="_top" xlink:title=" ">
<polygon fill="none" stroke="black" points="107.5,-112.5 107.5,-131.5 220.5,-131.5 220.5,-112.5 107.5,-112.5"/>
<text text-anchor="middle" x="164" y="-119.5" font-family="Helvetica,sans-Serif" font-size="10.00">include/ecat_node.hpp</text>
</a>
</g>
</g>
<!-- Node1&#45;&gt;Node2 -->
<g id="edge1" class="edge">
<title>Node1&#45;&gt;Node2</title>
<path fill="none" stroke="midnightblue" d="M196.53,-215.4C191.96,-207.25 186.8,-197.33 183,-188 175.01,-168.4 168.86,-144.23 165.92,-131.6"/>
<polygon fill="midnightblue" stroke="midnightblue" points="193.63,-217.38 201.66,-224.3 199.7,-213.89 193.63,-217.38"/>
</g>
<!-- Node7 -->
<g id="node7" class="node">
<title>Node7</title>
<g id="a_node7"><a xlink:href="ecat__slave_8hpp.html" target="_top" xlink:title=" ">
<polygon fill="none" stroke="black" points="192,-168.5 192,-187.5 308,-187.5 308,-168.5 192,-168.5"/>
<text text-anchor="middle" x="250" y="-175.5" font-family="Helvetica,sans-Serif" font-size="10.00">include/ecat_slave.hpp</text>
</a>
</g>
</g>
<!-- Node1&#45;&gt;Node7 -->
<g id="edge7" class="edge">
<title>Node1&#45;&gt;Node7</title>
<path fill="none" stroke="midnightblue" d="M220.42,-216.14C227.91,-206.74 236.94,-195.4 243.03,-187.75"/>
<polygon fill="midnightblue" stroke="midnightblue" points="217.59,-214.08 214.1,-224.08 223.07,-218.44 217.59,-214.08"/>
</g>
<!-- Node3 -->
<g id="node3" class="node">
<title>Node3</title>
<g id="a_node3"><a xlink:href="ecat__lifecycle_8hpp.html" target="_top" xlink:title=" ">
<polygon fill="none" stroke="black" points="8,-56.5 8,-75.5 136,-75.5 136,-56.5 8,-56.5"/>
<text text-anchor="middle" x="72" y="-63.5" font-family="Helvetica,sans-Serif" font-size="10.00">include/ecat_lifecycle.hpp</text>
</a>
</g>
</g>
<!-- Node2&#45;&gt;Node3 -->
<g id="edge2" class="edge">
<title>Node2&#45;&gt;Node3</title>
<path fill="none" stroke="midnightblue" d="M140.45,-107.18C123.52,-97.24 101.22,-84.15 86.74,-75.65"/>
<polygon fill="midnightblue" stroke="midnightblue" points="138.82,-110.28 149.22,-112.32 142.37,-104.24 138.82,-110.28"/>
</g>
<!-- Node5 -->
<g id="node5" class="node">
<title>Node5</title>
<g id="a_node5"><a xlink:href="main_8cpp.html" target="_top" xlink:title=" ">
<polygon fill="none" stroke="black" points="128,-0.5 128,-19.5 200,-19.5 200,-0.5 128,-0.5"/>
<text text-anchor="middle" x="164" y="-7.5" font-family="Helvetica,sans-Serif" font-size="10.00">src/main.cpp</text>
</a>
</g>
</g>
<!-- Node2&#45;&gt;Node5 -->
<g id="edge6" class="edge">
<title>Node2&#45;&gt;Node5</title>
<path fill="none" stroke="midnightblue" d="M164,-102.35C164,-78.25 164,-37.31 164,-19.59"/>
<polygon fill="midnightblue" stroke="midnightblue" points="160.5,-102.37 164,-112.37 167.5,-102.37 160.5,-102.37"/>
</g>
<!-- Node6 -->
<g id="node6" class="node">
<title>Node6</title>
<g id="a_node6"><a xlink:href="ecat__node_8cpp.html" target="_top" xlink:title=" ">
<polygon fill="none" stroke="black" points="192,-56.5 192,-75.5 288,-75.5 288,-56.5 192,-56.5"/>
<text text-anchor="middle" x="240" y="-63.5" font-family="Helvetica,sans-Serif" font-size="10.00">src/ecat_node.cpp</text>
</a>
</g>
</g>
<!-- Node2&#45;&gt;Node6 -->
<g id="edge5" class="edge">
<title>Node2&#45;&gt;Node6</title>
<path fill="none" stroke="midnightblue" d="M184.58,-106.38C198.31,-96.62 215.93,-84.11 227.57,-75.83"/>
<polygon fill="midnightblue" stroke="midnightblue" points="182.34,-103.68 176.21,-112.32 186.39,-109.38 182.34,-103.68"/>
</g>
<!-- Node4 -->
<g id="node4" class="node">
<title>Node4</title>
<g id="a_node4"><a xlink:href="ecat__lifecycle_8cpp.html" target="_top" xlink:title=" ">
<polygon fill="none" stroke="black" points="0,-0.5 0,-19.5 110,-19.5 110,-0.5 0,-0.5"/>
<text text-anchor="middle" x="55" y="-7.5" font-family="Helvetica,sans-Serif" font-size="10.00">src/ecat_lifecycle.cpp</text>
</a>
</g>
</g>
<!-- Node3&#45;&gt;Node4 -->
<g id="edge3" class="edge">
<title>Node3&#45;&gt;Node4</title>
<path fill="none" stroke="midnightblue" d="M66.14,-46.4C63.3,-37.36 60.02,-26.94 57.75,-19.75"/>
<polygon fill="midnightblue" stroke="midnightblue" points="62.85,-47.6 69.19,-56.08 69.53,-45.49 62.85,-47.6"/>
</g>
<!-- Node3&#45;&gt;Node5 -->
<g id="edge4" class="edge">
<title>Node3&#45;&gt;Node5</title>
<path fill="none" stroke="midnightblue" d="M95.55,-51.18C112.48,-41.24 134.78,-28.15 149.26,-19.65"/>
<polygon fill="midnightblue" stroke="midnightblue" points="93.63,-48.24 86.78,-56.32 97.18,-54.28 93.63,-48.24"/>
</g>
<!-- Node7&#45;&gt;Node2 -->
<g id="edge8" class="edge">
<title>Node7&#45;&gt;Node2</title>
<path fill="none" stroke="midnightblue" d="M227.55,-162.9C211.78,-153 191.19,-140.07 177.78,-131.65"/>
<polygon fill="midnightblue" stroke="midnightblue" points="225.85,-165.97 236.18,-168.32 229.57,-160.04 225.85,-165.97"/>
</g>
<!-- Node8 -->
<g id="node8" class="node">
<title>Node8</title>
<g id="a_node8"><a xlink:href="ecat__slave_8cpp.html" target="_top" xlink:title=" ">
<polygon fill="none" stroke="black" points="239,-112.5 239,-131.5 337,-131.5 337,-112.5 239,-112.5"/>
<text text-anchor="middle" x="288" y="-119.5" font-family="Helvetica,sans-Serif" font-size="10.00">src/ecat_slave.cpp</text>
</a>
</g>
</g>
<!-- Node7&#45;&gt;Node8 -->
<g id="edge9" class="edge">
<title>Node7&#45;&gt;Node8</title>
<path fill="none" stroke="midnightblue" d="M262.06,-159.86C268.64,-150.5 276.51,-139.33 281.84,-131.75"/>
<polygon fill="midnightblue" stroke="midnightblue" points="259.17,-157.89 256.27,-168.08 264.89,-161.92 259.17,-157.89"/>
</g>
</g>
</svg>
