<?xml version="1.0" encoding="UTF-8" standalone="no"?>
<!DOCTYPE svg PUBLIC "-//W3C//DTD SVG 1.1//EN"
 "http://www.w3.org/Graphics/SVG/1.1/DTD/svg11.dtd">
<!-- Generated by graphviz version 2.43.0 (0)
 -->
<!-- Title: include/ecat_lifecycle.hpp Pages: 1 -->
<!--zoomable 252 -->
<svg id="main" version="1.1" xmlns="http://www.w3.org/2000/svg" xmlns:xlink="http://www.w3.org/1999/xlink" xml:space="preserve" onload="init(evt)">
<style type="text/css"><![CDATA[
.edge:hover path { stroke: red; }
.edge:hover polygon { stroke: red; fill: red; }
]]></style>
<script type="text/javascript"><![CDATA[
var edges = document.getElementsByTagName('g');
if (edges && edges.length) {
  for (var i=0;i<edges.length;i++) {
    if (edges[i].id.substr(0,4)=='edge') {
      edges[i].setAttribute('class','edge');
    }
  }
}
]]></script>
        <defs>
                <circle id="rim" cx="0" cy="0" r="7"/>
                <circle id="rim2" cx="0" cy="0" r="3.5"/>
                <g id="zoomPlus">
                        <use xlink:href="#rim" fill="#404040">
                                <set attributeName="fill" to="#808080" begin="zoomplus.mouseover" end="zoomplus.mouseout"/>
                        </use>
                        <path d="M-4,0h8M0,-4v8" fill="none" stroke="white" stroke-width="1.5" pointer-events="none"/>
                </g>
                <g id="zoomMin">
                        <use xlink:href="#rim" fill="#404040">
                                <set attributeName="fill" to="#808080" begin="zoomminus.mouseover" end="zoomminus.mouseout"/>
                        </use>
                        <path d="M-4,0h8" fill="none" stroke="white" stroke-width="1.5" pointer-events="none"/>
                </g>
                <g id="dirArrow">
                        <path fill="none" stroke="white" stroke-width="1.5" d="M0,-3.0v7 M-2.5,-0.5L0,-3.0L2.5,-0.5"/>
                </g>
               <g id="resetDef">
                       <use xlink:href="#rim2" fill="#404040">
                               <set attributeName="fill" to="#808080" begin="reset.mouseover" end="reset.mouseout"/>
                       </use>
               </g>
        </defs>

<script type="text/javascript">
var viewWidth = 2124;
var viewHeight = 252;
var sectionId = 'dynsection-0';
</script>
<script xlink:href="svgpan.js"/>
<svg id="graph" class="graph">
<g id="viewport">
<title>include/ecat_lifecycle.hpp</title>
<!-- Node1 -->
<g id="node1" class="node">
<title>Node1</title>
<g id="a_node1"><a xlink:title=" ">
<polygon fill="#bfbfbf" stroke="black" points="932,-224.5 932,-243.5 1075,-243.5 1075,-224.5 932,-224.5"/>
<text text-anchor="middle" x="1003.5" y="-231.5" font-family="Helvetica,sans-Serif" font-size="10.00">include/ecat_lifecycle.hpp</text>
</a>
</g>
</g>
<!-- Node2 -->
<g id="node2" class="node">
<title>Node2</title>
<g id="a_node2"><a xlink:href="ecat__node_8hpp.html" target="_top" xlink:title=" ">
<polygon fill="none" stroke="black" points="923.5,-168.5 923.5,-187.5 1011.5,-187.5 1011.5,-168.5 923.5,-168.5"/>
<text text-anchor="middle" x="967.5" y="-175.5" font-family="Helvetica,sans-Serif" font-size="10.00">ecat_node.hpp</text>
</a>
</g>
</g>
<!-- Node1&#45;&gt;Node2 -->
<g id="edge1" class="edge">
<title>Node1&#45;&gt;Node2</title>
<path fill="none" stroke="midnightblue" d="M997.56,-224.08C992.52,-216.53 985.16,-205.49 978.99,-196.23"/>
<polygon fill="midnightblue" stroke="midnightblue" points="981.79,-194.13 973.33,-187.75 975.97,-198.01 981.79,-194.13"/>
</g>
<!-- Node27 -->
<g id="node27" class="node">
<title>Node27</title>
<g id="a_node27"><a xlink:href="timing_8hpp.html" target="_top" xlink:title=" ">
<polygon fill="none" stroke="black" points="1726,-56.5 1726,-75.5 1795,-75.5 1795,-56.5 1726,-56.5"/>
<text text-anchor="middle" x="1760.5" y="-63.5" font-family="Helvetica,sans-Serif" font-size="10.00">timing.hpp</text>
</a>
</g>
</g>
<!-- Node1&#45;&gt;Node27 -->
<g id="edge27" class="edge">
<title>Node1&#45;&gt;Node27</title>
<path fill="none" stroke="midnightblue" d="M1042.34,-224.48C1170.39,-196.4 1578.78,-106.85 1715.45,-76.88"/>
<polygon fill="midnightblue" stroke="midnightblue" points="1716.55,-80.22 1725.57,-74.66 1715.05,-73.38 1716.55,-80.22"/>
</g>
<!-- Node3 -->
<g id="node3" class="node">
<title>Node3</title>
<g id="a_node3"><a xlink:href="ecat__globals_8hpp.html" target="_top" xlink:title=" ">
<polygon fill="none" stroke="black" points="845,-56.5 845,-75.5 944,-75.5 944,-56.5 845,-56.5"/>
<text text-anchor="middle" x="894.5" y="-63.5" font-family="Helvetica,sans-Serif" font-size="10.00">ecat_globals.hpp</text>
</a>
</g>
</g>
<!-- Node2&#45;&gt;Node3 -->
<g id="edge2" class="edge">
<title>Node2&#45;&gt;Node3</title>
<path fill="none" stroke="midnightblue" d="M953.04,-168.44C940.8,-160.47 923.67,-147.51 913.5,-132 904.34,-118.02 899.49,-99.52 896.99,-85.83"/>
<polygon fill="midnightblue" stroke="midnightblue" points="900.41,-85.01 895.4,-75.67 893.49,-86.09 900.41,-85.01"/>
</g>
<!-- Node26 -->
<g id="node26" class="node">
<title>Node26</title>
<g id="a_node26"><a xlink:href="ecat__slave_8hpp.html" target="_top" xlink:title=" ">
<polygon fill="none" stroke="black" points="922.5,-112.5 922.5,-131.5 1012.5,-131.5 1012.5,-112.5 922.5,-112.5"/>
<text text-anchor="middle" x="967.5" y="-119.5" font-family="Helvetica,sans-Serif" font-size="10.00">ecat_slave.hpp</text>
</a>
</g>
</g>
<!-- Node2&#45;&gt;Node26 -->
<g id="edge25" class="edge">
<title>Node2&#45;&gt;Node26</title>
<path fill="none" stroke="midnightblue" d="M967.5,-168.08C967.5,-161.01 967.5,-150.86 967.5,-141.99"/>
<polygon fill="midnightblue" stroke="midnightblue" points="971,-141.75 967.5,-131.75 964,-141.75 971,-141.75"/>
</g>
<!-- Node4 -->
<g id="node4" class="node">
<title>Node4</title>
<g id="a_node4"><a xlink:title=" ">
<polygon fill="none" stroke="#bfbfbf" points="1440.5,-0.5 1440.5,-19.5 1500.5,-19.5 1500.5,-0.5 1440.5,-0.5"/>
<text text-anchor="middle" x="1470.5" y="-7.5" font-family="Helvetica,sans-Serif" font-size="10.00">iostream</text>
</a>
</g>
</g>
<!-- Node3&#45;&gt;Node4 -->
<g id="edge3" class="edge">
<title>Node3&#45;&gt;Node4</title>
<path fill="none" stroke="midnightblue" d="M944.02,-63.22C1037.37,-59.35 1245.84,-48.27 1430.46,-19.94"/>
<polygon fill="midnightblue" stroke="midnightblue" points="1431.01,-23.4 1440.35,-18.41 1429.93,-16.49 1431.01,-23.4"/>
</g>
<!-- Node5 -->
<g id="node5" class="node">
<title>Node5</title>
<g id="a_node5"><a xlink:title=" ">
<polygon fill="none" stroke="#bfbfbf" points="1300.5,-0.5 1300.5,-19.5 1350.5,-19.5 1350.5,-0.5 1300.5,-0.5"/>
<text text-anchor="middle" x="1325.5" y="-7.5" font-family="Helvetica,sans-Serif" font-size="10.00">cstring</text>
</a>
</g>
</g>
<!-- Node3&#45;&gt;Node5 -->
<g id="edge4" class="edge">
<title>Node3&#45;&gt;Node5</title>
<path fill="none" stroke="midnightblue" d="M944.05,-61.72C1017.61,-56.33 1160.13,-43.94 1290.2,-19.99"/>
<polygon fill="midnightblue" stroke="midnightblue" points="1291.16,-23.38 1300.34,-18.1 1289.87,-16.49 1291.16,-23.38"/>
</g>
<!-- Node6 -->
<g id="node6" class="node">
<title>Node6</title>
<g id="a_node6"><a xlink:title=" ">
<polygon fill="none" stroke="#bfbfbf" points="1369,-0.5 1369,-19.5 1422,-19.5 1422,-0.5 1369,-0.5"/>
<text text-anchor="middle" x="1395.5" y="-7.5" font-family="Helvetica,sans-Serif" font-size="10.00">limits.h</text>
</a>
</g>
</g>
<!-- Node3&#45;&gt;Node6 -->
<g id="edge5" class="edge">
<title>Node3&#45;&gt;Node6</title>
<path fill="none" stroke="midnightblue" d="M944.03,-62.63C1027.54,-58.1 1201.74,-46.39 1358.55,-19.9"/>
<polygon fill="midnightblue" stroke="midnightblue" points="1359.59,-23.27 1368.86,-18.13 1358.41,-16.37 1359.59,-23.27"/>
</g>
<!-- Node7 -->
<g id="node7" class="node">
<title>Node7</title>
<g id="a_node7"><a xlink:title=" ">
<polygon fill="none" stroke="#bfbfbf" points="0,-0.5 0,-19.5 53,-19.5 53,-0.5 0,-0.5"/>
<text text-anchor="middle" x="26.5" y="-7.5" font-family="Helvetica,sans-Serif" font-size="10.00">stdlib.h</text>
</a>
</g>
</g>
<!-- Node3&#45;&gt;Node7 -->
<g id="edge6" class="edge">
<title>Node3&#45;&gt;Node7</title>
<path fill="none" stroke="midnightblue" d="M844.86,-65.72C716.65,-66.86 364.05,-65.4 63.37,-19.99"/>
<polygon fill="midnightblue" stroke="midnightblue" points="63.55,-16.48 53.14,-18.43 62.5,-23.4 63.55,-16.48"/>
</g>
<!-- Node8 -->
<g id="node8" class="node">
<title>Node8</title>
<g id="a_node8"><a xlink:title=" ">
<polygon fill="none" stroke="#bfbfbf" points="71,-0.5 71,-19.5 134,-19.5 134,-0.5 71,-0.5"/>
<text text-anchor="middle" x="102.5" y="-7.5" font-family="Helvetica,sans-Serif" font-size="10.00">pthread.h</text>
</a>
</g>
</g>
<!-- Node3&#45;&gt;Node8 -->
<g id="edge7" class="edge">
<title>Node3&#45;&gt;Node8</title>
<path fill="none" stroke="midnightblue" d="M844.95,-64.79C725.68,-63.71 413.14,-57.35 144.24,-20.04"/>
<polygon fill="midnightblue" stroke="midnightblue" points="144.68,-16.56 134.29,-18.64 143.71,-23.5 144.68,-16.56"/>
</g>
<!-- Node9 -->
<g id="node9" class="node">
<title>Node9</title>
<g id="a_node9"><a xlink:title=" ">
<polygon fill="none" stroke="#bfbfbf" points="152,-0.5 152,-19.5 203,-19.5 203,-0.5 152,-0.5"/>
<text text-anchor="middle" x="177.5" y="-7.5" font-family="Helvetica,sans-Serif" font-size="10.00">errno.h</text>
</a>
</g>
</g>
<!-- Node3&#45;&gt;Node9 -->
<g id="edge8" class="edge">
<title>Node3&#45;&gt;Node9</title>
<path fill="none" stroke="midnightblue" d="M844.85,-65C733.24,-64.29 454.11,-58.61 213.01,-19.94"/>
<polygon fill="midnightblue" stroke="midnightblue" points="213.44,-16.47 203.01,-18.32 212.31,-23.38 213.44,-16.47"/>
</g>
<!-- Node10 -->
<g id="node10" class="node">
<title>Node10</title>
<g id="a_node10"><a xlink:title=" ">
<polygon fill="none" stroke="#bfbfbf" points="221,-0.5 221,-19.5 276,-19.5 276,-0.5 221,-0.5"/>
<text text-anchor="middle" x="248.5" y="-7.5" font-family="Helvetica,sans-Serif" font-size="10.00">signal.h</text>
</a>
</g>
</g>
<!-- Node3&#45;&gt;Node10 -->
<g id="edge9" class="edge">
<title>Node3&#45;&gt;Node10</title>
<path fill="none" stroke="midnightblue" d="M844.85,-64.1C742.23,-61.64 499.3,-52.73 286.4,-19.86"/>
<polygon fill="midnightblue" stroke="midnightblue" points="286.7,-16.37 276.28,-18.28 285.62,-23.28 286.7,-16.37"/>
</g>
<!-- Node11 -->
<g id="node11" class="node">
<title>Node11</title>
<g id="a_node11"><a xlink:title=" ">
<polygon fill="none" stroke="#bfbfbf" points="294.5,-0.5 294.5,-19.5 344.5,-19.5 344.5,-0.5 294.5,-0.5"/>
<text text-anchor="middle" x="319.5" y="-7.5" font-family="Helvetica,sans-Serif" font-size="10.00">stdio.h</text>
</a>
</g>
</g>
<!-- Node3&#45;&gt;Node11 -->
<g id="edge10" class="edge">
<title>Node3&#45;&gt;Node11</title>
<path fill="none" stroke="midnightblue" d="M844.9,-63.79C750.9,-60.85 540.32,-51.28 354.59,-19.89"/>
<polygon fill="midnightblue" stroke="midnightblue" points="355.09,-16.42 344.64,-18.18 353.91,-23.32 355.09,-16.42"/>
</g>
<!-- Node12 -->
<g id="node12" class="node">
<title>Node12</title>
<g id="a_node12"><a xlink:title=" ">
<polygon fill="none" stroke="#bfbfbf" points="363,-0.5 363,-19.5 416,-19.5 416,-0.5 363,-0.5"/>
<text text-anchor="middle" x="389.5" y="-7.5" font-family="Helvetica,sans-Serif" font-size="10.00">string.h</text>
</a>
</g>
</g>
<!-- Node3&#45;&gt;Node12 -->
<g id="edge11" class="edge">
<title>Node3&#45;&gt;Node12</title>
<path fill="none" stroke="midnightblue" d="M844.76,-62.79C760.38,-58.5 583.73,-47.09 426.04,-20.03"/>
<polygon fill="midnightblue" stroke="midnightblue" points="426.61,-16.58 416.16,-18.31 425.41,-23.48 426.61,-16.58"/>
</g>
<!-- Node13 -->
<g id="node13" class="node">
<title>Node13</title>
<g id="a_node13"><a xlink:title=" ">
<polygon fill="none" stroke="#bfbfbf" points="434,-0.5 434,-19.5 521,-19.5 521,-0.5 434,-0.5"/>
<text text-anchor="middle" x="477.5" y="-7.5" font-family="Helvetica,sans-Serif" font-size="10.00">sys/resource.h</text>
</a>
</g>
</g>
<!-- Node3&#45;&gt;Node13 -->
<g id="edge12" class="edge">
<title>Node3&#45;&gt;Node13</title>
<path fill="none" stroke="midnightblue" d="M844.95,-59.59C776.73,-51.99 649.82,-37.28 531.14,-20.03"/>
<polygon fill="midnightblue" stroke="midnightblue" points="531.55,-16.56 521.15,-18.57 530.54,-23.48 531.55,-16.56"/>
</g>
<!-- Node14 -->
<g id="node14" class="node">
<title>Node14</title>
<g id="a_node14"><a xlink:title=" ">
<polygon fill="none" stroke="#bfbfbf" points="539.5,-0.5 539.5,-19.5 607.5,-19.5 607.5,-0.5 539.5,-0.5"/>
<text text-anchor="middle" x="573.5" y="-7.5" font-family="Helvetica,sans-Serif" font-size="10.00">sys/time.h</text>
</a>
</g>
</g>
<!-- Node3&#45;&gt;Node14 -->
<g id="edge13" class="edge">
<title>Node3&#45;&gt;Node14</title>
<path fill="none" stroke="midnightblue" d="M844.92,-57.68C791.29,-49.6 703.03,-35.85 617.6,-20.14"/>
<polygon fill="midnightblue" stroke="midnightblue" points="618.21,-16.69 607.74,-18.31 616.94,-23.58 618.21,-16.69"/>
</g>
<!-- Node15 -->
<g id="node15" class="node">
<title>Node15</title>
<g id="a_node15"><a xlink:title=" ">
<polygon fill="none" stroke="#bfbfbf" points="625.5,-0.5 625.5,-19.5 697.5,-19.5 697.5,-0.5 625.5,-0.5"/>
<text text-anchor="middle" x="661.5" y="-7.5" font-family="Helvetica,sans-Serif" font-size="10.00">sys/types.h</text>
</a>
</g>
</g>
<!-- Node3&#45;&gt;Node15 -->
<g id="edge14" class="edge">
<title>Node3&#45;&gt;Node15</title>
<path fill="none" stroke="midnightblue" d="M857.58,-56.44C816.99,-47.04 751.7,-31.9 707.73,-21.71"/>
<polygon fill="midnightblue" stroke="midnightblue" points="708.4,-18.28 697.86,-19.43 706.81,-25.09 708.4,-18.28"/>
</g>
<!-- Node16 -->
<g id="node16" class="node">
<title>Node16</title>
<g id="a_node16"><a xlink:title=" ">
<polygon fill="none" stroke="#bfbfbf" points="715.5,-0.5 715.5,-19.5 771.5,-19.5 771.5,-0.5 715.5,-0.5"/>
<text text-anchor="middle" x="743.5" y="-7.5" font-family="Helvetica,sans-Serif" font-size="10.00">unistd.h</text>
</a>
</g>
</g>
<!-- Node3&#45;&gt;Node16 -->
<g id="edge15" class="edge">
<title>Node3&#45;&gt;Node16</title>
<path fill="none" stroke="midnightblue" d="M870.57,-56.44C845.28,-47.4 805.2,-33.06 776.82,-22.92"/>
<polygon fill="midnightblue" stroke="midnightblue" points="777.91,-19.59 767.31,-19.52 775.55,-26.18 777.91,-19.59"/>
</g>
<!-- Node17 -->
<g id="node17" class="node">
<title>Node17</title>
<g id="a_node17"><a xlink:title=" ">
<polygon fill="none" stroke="#bfbfbf" points="789.5,-0.5 789.5,-19.5 837.5,-19.5 837.5,-0.5 789.5,-0.5"/>
<text text-anchor="middle" x="813.5" y="-7.5" font-family="Helvetica,sans-Serif" font-size="10.00">time.h</text>
</a>
</g>
</g>
<!-- Node3&#45;&gt;Node17 -->
<g id="edge16" class="edge">
<title>Node3&#45;&gt;Node17</title>
<path fill="none" stroke="midnightblue" d="M881.49,-56.32C868.97,-47.98 849.82,-35.21 835.03,-25.35"/>
<polygon fill="midnightblue" stroke="midnightblue" points="836.74,-22.29 826.48,-19.65 832.86,-28.11 836.74,-22.29"/>
</g>
<!-- Node18 -->
<g id="node18" class="node">
<title>Node18</title>
<g id="a_node18"><a xlink:title=" ">
<polygon fill="none" stroke="#bfbfbf" points="856,-0.5 856,-19.5 933,-19.5 933,-0.5 856,-0.5"/>
<text text-anchor="middle" x="894.5" y="-7.5" font-family="Helvetica,sans-Serif" font-size="10.00">sys/mman.h</text>
</a>
</g>
</g>
<!-- Node3&#45;&gt;Node18 -->
<g id="edge17" class="edge">
<title>Node3&#45;&gt;Node18</title>
<path fill="none" stroke="midnightblue" d="M894.5,-56.08C894.5,-49.01 894.5,-38.86 894.5,-29.99"/>
<polygon fill="midnightblue" stroke="midnightblue" points="898,-29.75 894.5,-19.75 891,-29.75 898,-29.75"/>
</g>
<!-- Node19 -->
<g id="node19" class="node">
<title>Node19</title>
<g id="a_node19"><a xlink:title=" ">
<polygon fill="none" stroke="#bfbfbf" points="951,-0.5 951,-19.5 1010,-19.5 1010,-0.5 951,-0.5"/>
<text text-anchor="middle" x="980.5" y="-7.5" font-family="Helvetica,sans-Serif" font-size="10.00">malloc.h</text>
</a>
</g>
</g>
<!-- Node3&#45;&gt;Node19 -->
<g id="edge18" class="edge">
<title>Node3&#45;&gt;Node19</title>
<path fill="none" stroke="midnightblue" d="M908.32,-56.32C921.73,-47.9 942.32,-34.97 958.09,-25.07"/>
<polygon fill="midnightblue" stroke="midnightblue" points="960.11,-27.94 966.72,-19.65 956.39,-22.01 960.11,-27.94"/>
</g>
<!-- Node20 -->
<g id="node20" class="node">
<title>Node20</title>
<g id="a_node20"><a xlink:title=" ">
<polygon fill="none" stroke="#bfbfbf" points="1028.5,-0.5 1028.5,-19.5 1082.5,-19.5 1082.5,-0.5 1028.5,-0.5"/>
<text text-anchor="middle" x="1055.5" y="-7.5" font-family="Helvetica,sans-Serif" font-size="10.00">sched.h</text>
</a>
</g>
</g>
<!-- Node3&#45;&gt;Node20 -->
<g id="edge19" class="edge">
<title>Node3&#45;&gt;Node20</title>
<path fill="none" stroke="midnightblue" d="M920.01,-56.44C947.1,-47.36 990.09,-32.94 1020.37,-22.78"/>
<polygon fill="midnightblue" stroke="midnightblue" points="1021.74,-26.01 1030.11,-19.52 1019.51,-19.38 1021.74,-26.01"/>
</g>
<!-- Node21 -->
<g id="node21" class="node">
<title>Node21</title>
<g id="a_node21"><a xlink:title=" ">
<polygon fill="none" stroke="#bfbfbf" points="1518.5,-0.5 1518.5,-19.5 1568.5,-19.5 1568.5,-0.5 1518.5,-0.5"/>
<text text-anchor="middle" x="1543.5" y="-7.5" font-family="Helvetica,sans-Serif" font-size="10.00">chrono</text>
</a>
</g>
</g>
<!-- Node3&#45;&gt;Node21 -->
<g id="edge20" class="edge">
<title>Node3&#45;&gt;Node21</title>
<path fill="none" stroke="midnightblue" d="M944.3,-64.48C1047.84,-62.73 1293.9,-55.07 1508.49,-19.85"/>
<polygon fill="midnightblue" stroke="midnightblue" points="1509.07,-23.31 1518.36,-18.21 1507.92,-16.4 1509.07,-23.31"/>
</g>
<!-- Node22 -->
<g id="node22" class="node">
<title>Node22</title>
<g id="a_node22"><a xlink:title=" ">
<polygon fill="none" stroke="#bfbfbf" points="1586.5,-0.5 1586.5,-19.5 1644.5,-19.5 1644.5,-0.5 1586.5,-0.5"/>
<text text-anchor="middle" x="1615.5" y="-7.5" font-family="Helvetica,sans-Serif" font-size="10.00">memory</text>
</a>
</g>
</g>
<!-- Node3&#45;&gt;Node22 -->
<g id="edge21" class="edge">
<title>Node3&#45;&gt;Node22</title>
<path fill="none" stroke="midnightblue" d="M944.09,-64.56C1055.55,-62.96 1334.42,-55.57 1576.11,-19.96"/>
<polygon fill="midnightblue" stroke="midnightblue" points="1576.76,-23.4 1586.14,-18.47 1575.73,-16.48 1576.76,-23.4"/>
</g>
<!-- Node23 -->
<g id="node23" class="node">
<title>Node23</title>
<g id="a_node23"><a xlink:title=" ">
<polygon fill="none" stroke="#bfbfbf" points="1663,-0.5 1663,-19.5 1710,-19.5 1710,-0.5 1663,-0.5"/>
<text text-anchor="middle" x="1686.5" y="-7.5" font-family="Helvetica,sans-Serif" font-size="10.00">vector</text>
</a>
</g>
</g>
<!-- Node3&#45;&gt;Node23 -->
<g id="edge22" class="edge">
<title>Node3&#45;&gt;Node23</title>
<path fill="none" stroke="midnightblue" d="M944.17,-65.59C1064.47,-66.27 1380.9,-63.54 1652.78,-19.73"/>
<polygon fill="midnightblue" stroke="midnightblue" points="1653.53,-23.15 1662.84,-18.08 1652.4,-16.24 1653.53,-23.15"/>
</g>
<!-- Node24 -->
<g id="node24" class="node">
<title>Node24</title>
<g id="a_node24"><a xlink:title=" ">
<polygon fill="none" stroke="#bfbfbf" points="1100.5,-0.5 1100.5,-19.5 1144.5,-19.5 1144.5,-0.5 1100.5,-0.5"/>
<text text-anchor="middle" x="1122.5" y="-7.5" font-family="Helvetica,sans-Serif" font-size="10.00">ecrt.h</text>
</a>
</g>
</g>
<!-- Node3&#45;&gt;Node24 -->
<g id="edge23" class="edge">
<title>Node3&#45;&gt;Node24</title>
<path fill="none" stroke="midnightblue" d="M935.04,-56.46C972.88,-48.33 1031.12,-35.4 1090.3,-20.2"/>
<polygon fill="midnightblue" stroke="midnightblue" points="1091.39,-23.54 1100.19,-17.64 1089.63,-16.76 1091.39,-23.54"/>
</g>
<!-- Node25 -->
<g id="node25" class="node">
<title>Node25</title>
<g id="a_node25"><a xlink:href="object__dictionary_8hpp.html" target="_top" xlink:title=" ">
<polygon fill="none" stroke="black" points="1162.5,-0.5 1162.5,-19.5 1282.5,-19.5 1282.5,-0.5 1162.5,-0.5"/>
<text text-anchor="middle" x="1222.5" y="-7.5" font-family="Helvetica,sans-Serif" font-size="10.00">object_dictionary.hpp</text>
</a>
</g>
</g>
<!-- Node3&#45;&gt;Node25 -->
<g id="edge24" class="edge">
<title>Node3&#45;&gt;Node25</title>
<path fill="none" stroke="midnightblue" d="M944.32,-56.8C1002.29,-47.25 1098.06,-31.49 1160.71,-21.17"/>
<polygon fill="midnightblue" stroke="midnightblue" points="1161.56,-24.58 1170.86,-19.5 1160.42,-17.67 1161.56,-24.58"/>
</g>
<!-- Node26&#45;&gt;Node3 -->
<g id="edge26" class="edge">
<title>Node26&#45;&gt;Node3</title>
<path fill="none" stroke="midnightblue" d="M955.77,-112.32C944.66,-104.11 927.76,-91.6 914.52,-81.81"/>
<polygon fill="midnightblue" stroke="midnightblue" points="916.56,-78.97 906.44,-75.83 912.4,-84.59 916.56,-78.97"/>
</g>
<!-- Node27&#45;&gt;Node4 -->
<g id="edge37" class="edge">
<title>Node27&#45;&gt;Node4</title>
<path fill="none" stroke="midnightblue" d="M1725.89,-59.35C1679.23,-51.61 1593.34,-36.95 1510.52,-20.13"/>
<polygon fill="midnightblue" stroke="midnightblue" points="1511.2,-16.7 1500.7,-18.12 1509.8,-23.56 1511.2,-16.7"/>
</g>
<!-- Node27&#45;&gt;Node21 -->
<g id="edge29" class="edge">
<title>Node27&#45;&gt;Node21</title>
<path fill="none" stroke="midnightblue" d="M1725.71,-56.64C1690.88,-48.22 1635.49,-34.73 1578.62,-20.25"/>
<polygon fill="midnightblue" stroke="midnightblue" points="1579.29,-16.81 1568.74,-17.73 1577.56,-23.6 1579.29,-16.81"/>
</g>
<!-- Node27&#45;&gt;Node22 -->
<g id="edge30" class="edge">
<title>Node27&#45;&gt;Node22</title>
<path fill="none" stroke="midnightblue" d="M1737.52,-56.44C1713.34,-47.44 1675.08,-33.19 1647.85,-23.05"/>
<polygon fill="midnightblue" stroke="midnightblue" points="1648.96,-19.73 1638.37,-19.52 1646.52,-26.29 1648.96,-19.73"/>
</g>
<!-- Node27&#45;&gt;Node23 -->
<g id="edge28" class="edge">
<title>Node27&#45;&gt;Node23</title>
<path fill="none" stroke="midnightblue" d="M1748.61,-56.32C1737.35,-48.11 1720.21,-35.6 1706.79,-25.81"/>
<polygon fill="midnightblue" stroke="midnightblue" points="1708.75,-22.9 1698.61,-19.83 1704.62,-28.56 1708.75,-22.9"/>
</g>
<!-- Node28 -->
<g id="node28" class="node">
<title>Node28</title>
<g id="a_node28"><a xlink:title=" ">
<polygon fill="none" stroke="#bfbfbf" points="1728,-0.5 1728,-19.5 1793,-19.5 1793,-0.5 1728,-0.5"/>
<text text-anchor="middle" x="1760.5" y="-7.5" font-family="Helvetica,sans-Serif" font-size="10.00">functional</text>
</a>
</g>
</g>
<!-- Node27&#45;&gt;Node28 -->
<g id="edge31" class="edge">
<title>Node27&#45;&gt;Node28</title>
<path fill="none" stroke="midnightblue" d="M1760.5,-56.08C1760.5,-49.01 1760.5,-38.86 1760.5,-29.99"/>
<polygon fill="midnightblue" stroke="midnightblue" points="1764,-29.75 1760.5,-19.75 1757,-29.75 1764,-29.75"/>
</g>
<!-- Node29 -->
<g id="node29" class="node">
<title>Node29</title>
<g id="a_node29"><a xlink:title=" ">
<polygon fill="none" stroke="#bfbfbf" points="1811.5,-0.5 1811.5,-19.5 1855.5,-19.5 1855.5,-0.5 1811.5,-0.5"/>
<text text-anchor="middle" x="1833.5" y="-7.5" font-family="Helvetica,sans-Serif" font-size="10.00">string</text>
</a>
</g>
</g>
<!-- Node27&#45;&gt;Node29 -->
<g id="edge32" class="edge">
<title>Node27&#45;&gt;Node29</title>
<path fill="none" stroke="midnightblue" d="M1772.23,-56.32C1783.34,-48.11 1800.24,-35.6 1813.48,-25.81"/>
<polygon fill="midnightblue" stroke="midnightblue" points="1815.6,-28.59 1821.56,-19.83 1811.44,-22.97 1815.6,-28.59"/>
</g>
<!-- Node30 -->
<g id="node30" class="node">
<title>Node30</title>
<g id="a_node30"><a xlink:title=" ">
<polygon fill="none" stroke="#bfbfbf" points="1873.5,-0.5 1873.5,-19.5 1923.5,-19.5 1923.5,-0.5 1873.5,-0.5"/>
<text text-anchor="middle" x="1898.5" y="-7.5" font-family="Helvetica,sans-Serif" font-size="10.00">cstdint</text>
</a>
</g>
</g>
<!-- Node27&#45;&gt;Node30 -->
<g id="edge33" class="edge">
<title>Node27&#45;&gt;Node30</title>
<path fill="none" stroke="midnightblue" d="M1782.37,-56.44C1805.28,-47.48 1841.48,-33.31 1867.37,-23.18"/>
<polygon fill="midnightblue" stroke="midnightblue" points="1868.7,-26.42 1876.74,-19.52 1866.15,-19.9 1868.7,-26.42"/>
</g>
<!-- Node31 -->
<g id="node31" class="node">
<title>Node31</title>
<g id="a_node31"><a xlink:title=" ">
<polygon fill="none" stroke="#bfbfbf" points="1941.5,-0.5 1941.5,-19.5 1985.5,-19.5 1985.5,-0.5 1941.5,-0.5"/>
<text text-anchor="middle" x="1963.5" y="-7.5" font-family="Helvetica,sans-Serif" font-size="10.00">ctime</text>
</a>
</g>
</g>
<!-- Node27&#45;&gt;Node31 -->
<g id="edge34" class="edge">
<title>Node27&#45;&gt;Node31</title>
<path fill="none" stroke="midnightblue" d="M1794.19,-56.47C1826.88,-48.13 1878.14,-34.89 1931.24,-20.3"/>
<polygon fill="midnightblue" stroke="midnightblue" points="1932.46,-23.59 1941.17,-17.56 1930.6,-16.84 1932.46,-23.59"/>
</g>
<!-- Node32 -->
<g id="node32" class="node">
<title>Node32</title>
<g id="a_node32"><a xlink:title=" ">
<polygon fill="none" stroke="#bfbfbf" points="2004,-0.5 2004,-19.5 2043,-19.5 2043,-0.5 2004,-0.5"/>
<text text-anchor="middle" x="2023.5" y="-7.5" font-family="Helvetica,sans-Serif" font-size="10.00">ratio</text>
</a>
</g>
</g>
<!-- Node27&#45;&gt;Node32 -->
<g id="edge35" class="edge">
<title>Node27&#45;&gt;Node32</title>
<path fill="none" stroke="midnightblue" d="M1795.26,-59.56C1839.3,-52.38 1917.71,-38.72 1994.13,-19.85"/>
<polygon fill="midnightblue" stroke="midnightblue" points="1995.08,-23.22 2003.93,-17.4 1993.38,-16.43 1995.08,-23.22"/>
</g>
<!-- Node33 -->
<g id="node33" class="node">
<title>Node33</title>
<g id="a_node33"><a xlink:title=" ">
<polygon fill="none" stroke="#bfbfbf" points="2061,-0.5 2061,-19.5 2116,-19.5 2116,-0.5 2061,-0.5"/>
<text text-anchor="middle" x="2088.5" y="-7.5" font-family="Helvetica,sans-Serif" font-size="10.00">fstream</text>
</a>
</g>
</g>
<!-- Node27&#45;&gt;Node33 -->
<g id="edge36" class="edge">
<title>Node27&#45;&gt;Node33</title>
<path fill="none" stroke="midnightblue" d="M1795.29,-60.69C1848.39,-53.89 1952.99,-39.59 2050.62,-20.24"/>
<polygon fill="midnightblue" stroke="midnightblue" points="2051.53,-23.63 2060.65,-18.23 2050.16,-16.77 2051.53,-23.63"/>
</g>
</g>
</svg>
        <g id="navigator" transform="translate(0 0)" fill="#404254">
                <rect fill="#f2f5e9" fill-opacity="0.5" stroke="#606060" stroke-width=".5" x="0" y="0" width="60" height="60"/>
                <use id="zoomplus" xlink:href="#zoomPlus" x="17" y="9" onmousedown="handleZoom(evt,'in')"/>
                <use id="zoomminus" xlink:href="#zoomMin" x="42" y="9" onmousedown="handleZoom(evt,'out')"/>
                <use id="reset" xlink:href="#resetDef" x="30" y="36" onmousedown="handleReset()"/>
                <g id="arrowUp" xlink:href="#dirArrow" transform="translate(30 24)" onmousedown="handlePan(0,-1)">
                  <use xlink:href="#rim" fill="#404040">
                        <set attributeName="fill" to="#808080" begin="arrowUp.mouseover" end="arrowUp.mouseout"/>
                  </use>
                  <path fill="none" stroke="white" stroke-width="1.5" d="M0,-3.0v7 M-2.5,-0.5L0,-3.0L2.5,-0.5"/>
                </g>
                <g id="arrowRight" xlink:href="#dirArrow" transform="rotate(90) translate(36 -43)" onmousedown="handlePan(1,0)">
                  <use xlink:href="#rim" fill="#404040">
                        <set attributeName="fill" to="#808080" begin="arrowRight.mouseover" end="arrowRight.mouseout"/>
                  </use>
                  <path fill="none" stroke="white" stroke-width="1.5" d="M0,-3.0v7 M-2.5,-0.5L0,-3.0L2.5,-0.5"/>
                </g>
                <g id="arrowDown" xlink:href="#dirArrow" transform="rotate(180) translate(-30 -48)" onmousedown="handlePan(0,1)">
                  <use xlink:href="#rim" fill="#404040">
                        <set attributeName="fill" to="#808080" begin="arrowDown.mouseover" end="arrowDown.mouseout"/>
                  </use>
                  <path fill="none" stroke="white" stroke-width="1.5" d="M0,-3.0v7 M-2.5,-0.5L0,-3.0L2.5,-0.5"/>
                </g>
                <g id="arrowLeft" xlink:href="#dirArrow" transform="rotate(270) translate(-36 17)" onmousedown="handlePan(-1,0)">
                  <use xlink:href="#rim" fill="#404040">
                        <set attributeName="fill" to="#808080" begin="arrowLeft.mouseover" end="arrowLeft.mouseout"/>
                  </use>
                  <path fill="none" stroke="white" stroke-width="1.5" d="M0,-3.0v7 M-2.5,-0.5L0,-3.0L2.5,-0.5"/>
                </g>
        </g>
        <svg viewBox="0 0 15 15" width="100%" height="30px" preserveAspectRatio="xMaxYMin meet">
         <g id="arrow_out" transform="scale(0.3 0.3)">
          <a xlink:href="ecat__lifecycle_8hpp__incl_org.svg" target="_base">
           <rect id="button" ry="5" rx="5" y="6" x="6" height="38" width="38"
                fill="#f2f5e9" fill-opacity="0.5" stroke="#606060" stroke-width="1.0"/>
           <path id="arrow"
             d="M 11.500037,31.436501 C 11.940474,20.09759 22.043105,11.32322 32.158766,21.979434 L 37.068811,17.246167 C 37.068811,17.246167 37.088388,32 37.088388,32 L 22.160133,31.978069 C 22.160133,31.978069 26.997745,27.140456 26.997745,27.140456 C 18.528582,18.264221 13.291696,25.230495 11.500037,31.436501 z"
             style="fill:#404040;"/>
          </a>
         </g>
        </svg>
</svg>
