<?xml version="1.0" encoding="UTF-8" standalone="no"?>
<!DOCTYPE svg PUBLIC "-//W3C//DTD SVG 1.1//EN"
 "http://www.w3.org/Graphics/SVG/1.1/DTD/svg11.dtd">
<!-- Generated by graphviz version 2.43.0 (0)
 -->
<!-- Title: src/main.cpp Pages: 1 -->
<!--zoomable 308 -->
<svg id="main" version="1.1" xmlns="http://www.w3.org/2000/svg" xmlns:xlink="http://www.w3.org/1999/xlink" xml:space="preserve" onload="init(evt)">
<style type="text/css"><![CDATA[
.edge:hover path { stroke: red; }
.edge:hover polygon { stroke: red; fill: red; }
]]></style>
<script type="text/javascript"><![CDATA[
var edges = document.getElementsByTagName('g');
if (edges && edges.length) {
  for (var i=0;i<edges.length;i++) {
    if (edges[i].id.substr(0,4)=='edge') {
      edges[i].setAttribute('class','edge');
    }
  }
}
]]></script>
        <defs>
                <circle id="rim" cx="0" cy="0" r="7"/>
                <circle id="rim2" cx="0" cy="0" r="3.5"/>
                <g id="zoomPlus">
                        <use xlink:href="#rim" fill="#404040">
                                <set attributeName="fill" to="#808080" begin="zoomplus.mouseover" end="zoomplus.mouseout"/>
                        </use>
                        <path d="M-4,0h8M0,-4v8" fill="none" stroke="white" stroke-width="1.5" pointer-events="none"/>
                </g>
                <g id="zoomMin">
                        <use xlink:href="#rim" fill="#404040">
                                <set attributeName="fill" to="#808080" begin="zoomminus.mouseover" end="zoomminus.mouseout"/>
                        </use>
                        <path d="M-4,0h8" fill="none" stroke="white" stroke-width="1.5" pointer-events="none"/>
                </g>
                <g id="dirArrow">
                        <path fill="none" stroke="white" stroke-width="1.5" d="M0,-3.0v7 M-2.5,-0.5L0,-3.0L2.5,-0.5"/>
                </g>
               <g id="resetDef">
                       <use xlink:href="#rim2" fill="#404040">
                               <set attributeName="fill" to="#808080" begin="reset.mouseover" end="reset.mouseout"/>
                       </use>
               </g>
        </defs>

<script type="text/javascript">
var viewWidth = 2299;
var viewHeight = 308;
var sectionId = 'dynsection-0';
</script>
<script xlink:href="svgpan.js"/>
<svg id="graph" class="graph">
<g id="viewport">
<title>src/main.cpp</title>
<!-- Node1 -->
<g id="node1" class="node">
<title>Node1</title>
<g id="a_node1"><a xlink:title=" ">
<polygon fill="#bfbfbf" stroke="black" points="1369.5,-280.5 1369.5,-299.5 1448.5,-299.5 1448.5,-280.5 1369.5,-280.5"/>
<text text-anchor="middle" x="1409" y="-287.5" font-family="Helvetica,sans-Serif" font-size="10.00">src/main.cpp</text>
</a>
</g>
</g>
<!-- Node2 -->
<g id="node2" class="node">
<title>Node2</title>
<g id="a_node2"><a xlink:href="ecat__node_8hpp.html" target="_top" xlink:title=" ">
<polygon fill="none" stroke="black" points="1293,-168.5 1293,-187.5 1381,-187.5 1381,-168.5 1293,-168.5"/>
<text text-anchor="middle" x="1337" y="-175.5" font-family="Helvetica,sans-Serif" font-size="10.00">ecat_node.hpp</text>
</a>
</g>
</g>
<!-- Node1&#45;&gt;Node2 -->
<g id="edge1" class="edge">
<title>Node1&#45;&gt;Node2</title>
<path fill="none" stroke="midnightblue" d="M1403.35,-280.37C1391.47,-262.22 1363.71,-219.8 1348.12,-195.99"/>
<polygon fill="midnightblue" stroke="midnightblue" points="1351.03,-194.04 1342.62,-187.59 1345.17,-197.88 1351.03,-194.04"/>
</g>
<!-- Node27 -->
<g id="node27" class="node">
<title>Node27</title>
<g id="a_node27"><a xlink:href="ecat__lifecycle_8hpp.html" target="_top" xlink:title=" ">
<polygon fill="none" stroke="black" points="1437.5,-224.5 1437.5,-243.5 1542.5,-243.5 1542.5,-224.5 1437.5,-224.5"/>
<text text-anchor="middle" x="1490" y="-231.5" font-family="Helvetica,sans-Serif" font-size="10.00">ecat_lifecycle.hpp</text>
</a>
</g>
</g>
<!-- Node1&#45;&gt;Node27 -->
<g id="edge27" class="edge">
<title>Node1&#45;&gt;Node27</title>
<path fill="none" stroke="midnightblue" d="M1422.01,-280.32C1434.53,-271.98 1453.68,-259.21 1468.47,-249.35"/>
<polygon fill="midnightblue" stroke="midnightblue" points="1470.64,-252.11 1477.02,-243.65 1466.76,-246.29 1470.64,-252.11"/>
</g>
<!-- Node35 -->
<g id="node35" class="node">
<title>Node35</title>
<g id="a_node35"><a xlink:href="xboxController_8hpp.html" target="_top" xlink:title=" ">
<polygon fill="none" stroke="black" points="1416,-56.5 1416,-75.5 1526,-75.5 1526,-56.5 1416,-56.5"/>
<text text-anchor="middle" x="1471" y="-63.5" font-family="Helvetica,sans-Serif" font-size="10.00">xboxController.hpp</text>
</a>
</g>
</g>
<!-- Node1&#45;&gt;Node35 -->
<g id="edge40" class="edge">
<title>Node1&#45;&gt;Node35</title>
<path fill="none" stroke="midnightblue" d="M1411.43,-280.3C1420.57,-247.56 1453.02,-131.38 1465.79,-85.67"/>
<polygon fill="midnightblue" stroke="midnightblue" points="1469.2,-86.46 1468.52,-75.88 1462.46,-84.57 1469.2,-86.46"/>
</g>
<!-- Node3 -->
<g id="node3" class="node">
<title>Node3</title>
<g id="a_node3"><a xlink:href="ecat__globals_8hpp.html" target="_top" xlink:title=" ">
<polygon fill="none" stroke="black" points="893.5,-56.5 893.5,-75.5 992.5,-75.5 992.5,-56.5 893.5,-56.5"/>
<text text-anchor="middle" x="943" y="-63.5" font-family="Helvetica,sans-Serif" font-size="10.00">ecat_globals.hpp</text>
</a>
</g>
</g>
<!-- Node2&#45;&gt;Node3 -->
<g id="edge2" class="edge">
<title>Node2&#45;&gt;Node3</title>
<path fill="none" stroke="midnightblue" d="M1306.41,-168.46C1236.07,-148.82 1062.81,-100.45 983.65,-78.35"/>
<polygon fill="midnightblue" stroke="midnightblue" points="984.14,-74.85 973.57,-75.53 982.26,-81.59 984.14,-74.85"/>
</g>
<!-- Node26 -->
<g id="node26" class="node">
<title>Node26</title>
<g id="a_node26"><a xlink:href="ecat__slave_8hpp.html" target="_top" xlink:title=" ">
<polygon fill="none" stroke="black" points="1205,-112.5 1205,-131.5 1295,-131.5 1295,-112.5 1205,-112.5"/>
<text text-anchor="middle" x="1250" y="-119.5" font-family="Helvetica,sans-Serif" font-size="10.00">ecat_slave.hpp</text>
</a>
</g>
</g>
<!-- Node2&#45;&gt;Node26 -->
<g id="edge25" class="edge">
<title>Node2&#45;&gt;Node26</title>
<path fill="none" stroke="midnightblue" d="M1323.02,-168.32C1309.45,-159.9 1288.62,-146.97 1272.68,-137.07"/>
<polygon fill="midnightblue" stroke="midnightblue" points="1274.29,-133.95 1263.94,-131.65 1270.59,-139.9 1274.29,-133.95"/>
</g>
<!-- Node4 -->
<g id="node4" class="node">
<title>Node4</title>
<g id="a_node4"><a xlink:title=" ">
<polygon fill="none" stroke="#bfbfbf" points="1516,-0.5 1516,-19.5 1576,-19.5 1576,-0.5 1516,-0.5"/>
<text text-anchor="middle" x="1546" y="-7.5" font-family="Helvetica,sans-Serif" font-size="10.00">iostream</text>
</a>
</g>
</g>
<!-- Node3&#45;&gt;Node4 -->
<g id="edge3" class="edge">
<title>Node3&#45;&gt;Node4</title>
<path fill="none" stroke="midnightblue" d="M992.7,-63.49C1089.61,-60.02 1310.7,-49.49 1505.7,-19.98"/>
<polygon fill="midnightblue" stroke="midnightblue" points="1506.5,-23.39 1515.85,-18.42 1505.44,-16.48 1506.5,-23.39"/>
</g>
<!-- Node5 -->
<g id="node5" class="node">
<title>Node5</title>
<g id="a_node5"><a xlink:title=" ">
<polygon fill="none" stroke="#bfbfbf" points="0,-0.5 0,-19.5 50,-19.5 50,-0.5 0,-0.5"/>
<text text-anchor="middle" x="25" y="-7.5" font-family="Helvetica,sans-Serif" font-size="10.00">cstring</text>
</a>
</g>
</g>
<!-- Node3&#45;&gt;Node5 -->
<g id="edge4" class="edge">
<title>Node3&#45;&gt;Node5</title>
<path fill="none" stroke="midnightblue" d="M893.39,-63.83C734.82,-59.89 240.55,-45.93 60.03,-19.77"/>
<polygon fill="midnightblue" stroke="midnightblue" points="60.54,-16.31 50.13,-18.27 59.49,-23.23 60.54,-16.31"/>
</g>
<!-- Node6 -->
<g id="node6" class="node">
<title>Node6</title>
<g id="a_node6"><a xlink:title=" ">
<polygon fill="none" stroke="#bfbfbf" points="68.5,-0.5 68.5,-19.5 121.5,-19.5 121.5,-0.5 68.5,-0.5"/>
<text text-anchor="middle" x="95" y="-7.5" font-family="Helvetica,sans-Serif" font-size="10.00">limits.h</text>
</a>
</g>
</g>
<!-- Node3&#45;&gt;Node6 -->
<g id="edge5" class="edge">
<title>Node3&#45;&gt;Node6</title>
<path fill="none" stroke="midnightblue" d="M893.16,-65.63C766.88,-66.5 424.2,-64.36 131.59,-19.95"/>
<polygon fill="midnightblue" stroke="midnightblue" points="132.06,-16.49 121.64,-18.43 130.99,-23.4 132.06,-16.49"/>
</g>
<!-- Node7 -->
<g id="node7" class="node">
<title>Node7</title>
<g id="a_node7"><a xlink:title=" ">
<polygon fill="none" stroke="#bfbfbf" points="1300.5,-0.5 1300.5,-19.5 1353.5,-19.5 1353.5,-0.5 1300.5,-0.5"/>
<text text-anchor="middle" x="1327" y="-7.5" font-family="Helvetica,sans-Serif" font-size="10.00">stdlib.h</text>
</a>
</g>
</g>
<!-- Node3&#45;&gt;Node7 -->
<g id="edge6" class="edge">
<title>Node3&#45;&gt;Node7</title>
<path fill="none" stroke="midnightblue" d="M992.56,-60.42C1058.33,-53.95 1178.21,-40.74 1290.22,-19.94"/>
<polygon fill="midnightblue" stroke="midnightblue" points="1291.16,-23.32 1300.34,-18.03 1289.87,-16.44 1291.16,-23.32"/>
</g>
<!-- Node8 -->
<g id="node8" class="node">
<title>Node8</title>
<g id="a_node8"><a xlink:title=" ">
<polygon fill="none" stroke="#bfbfbf" points="139.5,-0.5 139.5,-19.5 202.5,-19.5 202.5,-0.5 139.5,-0.5"/>
<text text-anchor="middle" x="171" y="-7.5" font-family="Helvetica,sans-Serif" font-size="10.00">pthread.h</text>
</a>
</g>
</g>
<!-- Node3&#45;&gt;Node8 -->
<g id="edge7" class="edge">
<title>Node3&#45;&gt;Node8</title>
<path fill="none" stroke="midnightblue" d="M893.46,-64.68C776.45,-63.34 473.76,-56.46 212.84,-20.05"/>
<polygon fill="midnightblue" stroke="midnightblue" points="213.18,-16.57 202.79,-18.63 212.2,-23.5 213.18,-16.57"/>
</g>
<!-- Node9 -->
<g id="node9" class="node">
<title>Node9</title>
<g id="a_node9"><a xlink:title=" ">
<polygon fill="none" stroke="#bfbfbf" points="220.5,-0.5 220.5,-19.5 271.5,-19.5 271.5,-0.5 220.5,-0.5"/>
<text text-anchor="middle" x="246" y="-7.5" font-family="Helvetica,sans-Serif" font-size="10.00">errno.h</text>
</a>
</g>
</g>
<!-- Node3&#45;&gt;Node9 -->
<g id="edge8" class="edge">
<title>Node3&#45;&gt;Node9</title>
<path fill="none" stroke="midnightblue" d="M893.14,-64.85C783.77,-63.84 514.58,-57.55 281.53,-19.95"/>
<polygon fill="midnightblue" stroke="midnightblue" points="281.94,-16.47 271.51,-18.31 280.81,-23.38 281.94,-16.47"/>
</g>
<!-- Node10 -->
<g id="node10" class="node">
<title>Node10</title>
<g id="a_node10"><a xlink:title=" ">
<polygon fill="none" stroke="#bfbfbf" points="289.5,-0.5 289.5,-19.5 344.5,-19.5 344.5,-0.5 289.5,-0.5"/>
<text text-anchor="middle" x="317" y="-7.5" font-family="Helvetica,sans-Serif" font-size="10.00">signal.h</text>
</a>
</g>
</g>
<!-- Node3&#45;&gt;Node10 -->
<g id="edge9" class="edge">
<title>Node3&#45;&gt;Node10</title>
<path fill="none" stroke="midnightblue" d="M893.33,-64.04C793.04,-61.48 559.2,-52.44 354.83,-20.06"/>
<polygon fill="midnightblue" stroke="midnightblue" points="355.24,-16.58 344.81,-18.45 354.13,-23.49 355.24,-16.58"/>
</g>
<!-- Node11 -->
<g id="node11" class="node">
<title>Node11</title>
<g id="a_node11"><a xlink:title=" ">
<polygon fill="none" stroke="#bfbfbf" points="1372,-0.5 1372,-19.5 1422,-19.5 1422,-0.5 1372,-0.5"/>
<text text-anchor="middle" x="1397" y="-7.5" font-family="Helvetica,sans-Serif" font-size="10.00">stdio.h</text>
</a>
</g>
</g>
<!-- Node3&#45;&gt;Node11 -->
<g id="edge10" class="edge">
<title>Node3&#45;&gt;Node11</title>
<path fill="none" stroke="midnightblue" d="M992.81,-62.12C1069.97,-57.13 1223.1,-45.07 1361.88,-19.95"/>
<polygon fill="midnightblue" stroke="midnightblue" points="1362.64,-23.36 1371.85,-18.11 1361.38,-16.48 1362.64,-23.36"/>
</g>
<!-- Node12 -->
<g id="node12" class="node">
<title>Node12</title>
<g id="a_node12"><a xlink:title=" ">
<polygon fill="none" stroke="#bfbfbf" points="362.5,-0.5 362.5,-19.5 415.5,-19.5 415.5,-0.5 362.5,-0.5"/>
<text text-anchor="middle" x="389" y="-7.5" font-family="Helvetica,sans-Serif" font-size="10.00">string.h</text>
</a>
</g>
</g>
<!-- Node3&#45;&gt;Node12 -->
<g id="edge11" class="edge">
<title>Node3&#45;&gt;Node12</title>
<path fill="none" stroke="midnightblue" d="M893.28,-63.42C802.17,-59.93 602.32,-49.54 425.65,-20.03"/>
<polygon fill="midnightblue" stroke="midnightblue" points="426.1,-16.56 415.66,-18.34 424.93,-23.46 426.1,-16.56"/>
</g>
<!-- Node13 -->
<g id="node13" class="node">
<title>Node13</title>
<g id="a_node13"><a xlink:title=" ">
<polygon fill="none" stroke="#bfbfbf" points="433.5,-0.5 433.5,-19.5 520.5,-19.5 520.5,-0.5 433.5,-0.5"/>
<text text-anchor="middle" x="477" y="-7.5" font-family="Helvetica,sans-Serif" font-size="10.00">sys/resource.h</text>
</a>
</g>
</g>
<!-- Node3&#45;&gt;Node13 -->
<g id="edge12" class="edge">
<title>Node3&#45;&gt;Node13</title>
<path fill="none" stroke="midnightblue" d="M893.29,-60.55C817.5,-53.55 668.24,-38.94 530.93,-20.05"/>
<polygon fill="midnightblue" stroke="midnightblue" points="531.03,-16.53 520.64,-18.62 530.07,-23.46 531.03,-16.53"/>
</g>
<!-- Node14 -->
<g id="node14" class="node">
<title>Node14</title>
<g id="a_node14"><a xlink:title=" ">
<polygon fill="none" stroke="#bfbfbf" points="539,-0.5 539,-19.5 607,-19.5 607,-0.5 539,-0.5"/>
<text text-anchor="middle" x="573" y="-7.5" font-family="Helvetica,sans-Serif" font-size="10.00">sys/time.h</text>
</a>
</g>
</g>
<!-- Node3&#45;&gt;Node14 -->
<g id="edge13" class="edge">
<title>Node3&#45;&gt;Node14</title>
<path fill="none" stroke="midnightblue" d="M893.25,-59.25C831.02,-51.81 720.97,-37.85 617.24,-20.12"/>
<polygon fill="midnightblue" stroke="midnightblue" points="617.68,-16.64 607.23,-18.39 616.49,-23.54 617.68,-16.64"/>
</g>
<!-- Node15 -->
<g id="node15" class="node">
<title>Node15</title>
<g id="a_node15"><a xlink:title=" ">
<polygon fill="none" stroke="#bfbfbf" points="625,-0.5 625,-19.5 697,-19.5 697,-0.5 625,-0.5"/>
<text text-anchor="middle" x="661" y="-7.5" font-family="Helvetica,sans-Serif" font-size="10.00">sys/types.h</text>
</a>
</g>
</g>
<!-- Node3&#45;&gt;Node15 -->
<g id="edge14" class="edge">
<title>Node3&#45;&gt;Node15</title>
<path fill="none" stroke="midnightblue" d="M897.1,-56.42C851.48,-47.87 779.24,-34.23 707.47,-20.27"/>
<polygon fill="midnightblue" stroke="midnightblue" points="707.83,-16.78 697.34,-18.3 706.49,-23.65 707.83,-16.78"/>
</g>
<!-- Node16 -->
<g id="node16" class="node">
<title>Node16</title>
<g id="a_node16"><a xlink:title=" ">
<polygon fill="none" stroke="#bfbfbf" points="1226,-0.5 1226,-19.5 1282,-19.5 1282,-0.5 1226,-0.5"/>
<text text-anchor="middle" x="1254" y="-7.5" font-family="Helvetica,sans-Serif" font-size="10.00">unistd.h</text>
</a>
</g>
</g>
<!-- Node3&#45;&gt;Node16 -->
<g id="edge15" class="edge">
<title>Node3&#45;&gt;Node16</title>
<path fill="none" stroke="midnightblue" d="M992.71,-57.99C1045.66,-50.27 1132.15,-36.92 1215.84,-20.11"/>
<polygon fill="midnightblue" stroke="midnightblue" points="1216.66,-23.52 1225.77,-18.1 1215.27,-16.66 1216.66,-23.52"/>
</g>
<!-- Node17 -->
<g id="node17" class="node">
<title>Node17</title>
<g id="a_node17"><a xlink:title=" ">
<polygon fill="none" stroke="#bfbfbf" points="715,-0.5 715,-19.5 763,-19.5 763,-0.5 715,-0.5"/>
<text text-anchor="middle" x="739" y="-7.5" font-family="Helvetica,sans-Serif" font-size="10.00">time.h</text>
</a>
</g>
</g>
<!-- Node3&#45;&gt;Node17 -->
<g id="edge16" class="edge">
<title>Node3&#45;&gt;Node17</title>
<path fill="none" stroke="midnightblue" d="M910.2,-56.46C877.77,-48 826.49,-34.56 773.13,-20.29"/>
<polygon fill="midnightblue" stroke="midnightblue" points="773.71,-16.82 763.14,-17.61 771.9,-23.58 773.71,-16.82"/>
</g>
<!-- Node18 -->
<g id="node18" class="node">
<title>Node18</title>
<g id="a_node18"><a xlink:title=" ">
<polygon fill="none" stroke="#bfbfbf" points="781.5,-0.5 781.5,-19.5 858.5,-19.5 858.5,-0.5 781.5,-0.5"/>
<text text-anchor="middle" x="820" y="-7.5" font-family="Helvetica,sans-Serif" font-size="10.00">sys/mman.h</text>
</a>
</g>
</g>
<!-- Node3&#45;&gt;Node18 -->
<g id="edge17" class="edge">
<title>Node3&#45;&gt;Node18</title>
<path fill="none" stroke="midnightblue" d="M923.51,-56.44C903.36,-47.6 871.68,-33.69 848.67,-23.59"/>
<polygon fill="midnightblue" stroke="midnightblue" points="849.96,-20.33 839.4,-19.52 847.15,-26.74 849.96,-20.33"/>
</g>
<!-- Node19 -->
<g id="node19" class="node">
<title>Node19</title>
<g id="a_node19"><a xlink:title=" ">
<polygon fill="none" stroke="#bfbfbf" points="876.5,-0.5 876.5,-19.5 935.5,-19.5 935.5,-0.5 876.5,-0.5"/>
<text text-anchor="middle" x="906" y="-7.5" font-family="Helvetica,sans-Serif" font-size="10.00">malloc.h</text>
</a>
</g>
</g>
<!-- Node3&#45;&gt;Node19 -->
<g id="edge18" class="edge">
<title>Node3&#45;&gt;Node19</title>
<path fill="none" stroke="midnightblue" d="M936.89,-56.08C931.72,-48.53 924.15,-37.49 917.81,-28.23"/>
<polygon fill="midnightblue" stroke="midnightblue" points="920.54,-26.02 912,-19.75 914.76,-29.98 920.54,-26.02"/>
</g>
<!-- Node20 -->
<g id="node20" class="node">
<title>Node20</title>
<g id="a_node20"><a xlink:title=" ">
<polygon fill="none" stroke="#bfbfbf" points="954,-0.5 954,-19.5 1008,-19.5 1008,-0.5 954,-0.5"/>
<text text-anchor="middle" x="981" y="-7.5" font-family="Helvetica,sans-Serif" font-size="10.00">sched.h</text>
</a>
</g>
</g>
<!-- Node3&#45;&gt;Node20 -->
<g id="edge19" class="edge">
<title>Node3&#45;&gt;Node20</title>
<path fill="none" stroke="midnightblue" d="M949.27,-56.08C954.64,-48.46 962.52,-37.26 969.08,-27.94"/>
<polygon fill="midnightblue" stroke="midnightblue" points="971.95,-29.94 974.84,-19.75 966.22,-25.91 971.95,-29.94"/>
</g>
<!-- Node21 -->
<g id="node21" class="node">
<title>Node21</title>
<g id="a_node21"><a xlink:title=" ">
<polygon fill="none" stroke="#bfbfbf" points="1834,-0.5 1834,-19.5 1884,-19.5 1884,-0.5 1834,-0.5"/>
<text text-anchor="middle" x="1859" y="-7.5" font-family="Helvetica,sans-Serif" font-size="10.00">chrono</text>
</a>
</g>
</g>
<!-- Node3&#45;&gt;Node21 -->
<g id="edge20" class="edge">
<title>Node3&#45;&gt;Node21</title>
<path fill="none" stroke="midnightblue" d="M992.78,-63.82C1151.22,-59.86 1643.48,-45.88 1823.73,-19.81"/>
<polygon fill="midnightblue" stroke="midnightblue" points="1824.51,-23.23 1833.87,-18.27 1823.46,-16.31 1824.51,-23.23"/>
</g>
<!-- Node22 -->
<g id="node22" class="node">
<title>Node22</title>
<g id="a_node22"><a xlink:title=" ">
<polygon fill="none" stroke="#bfbfbf" points="1440,-0.5 1440,-19.5 1498,-19.5 1498,-0.5 1440,-0.5"/>
<text text-anchor="middle" x="1469" y="-7.5" font-family="Helvetica,sans-Serif" font-size="10.00">memory</text>
</a>
</g>
</g>
<!-- Node3&#45;&gt;Node22 -->
<g id="edge21" class="edge">
<title>Node3&#45;&gt;Node22</title>
<path fill="none" stroke="midnightblue" d="M992.82,-62.72C1079.62,-58.25 1264.32,-46.51 1429.29,-20.07"/>
<polygon fill="midnightblue" stroke="midnightblue" points="1430.32,-23.45 1439.62,-18.39 1429.19,-16.54 1430.32,-23.45"/>
</g>
<!-- Node23 -->
<g id="node23" class="node">
<title>Node23</title>
<g id="a_node23"><a xlink:title=" ">
<polygon fill="none" stroke="#bfbfbf" points="1768.5,-0.5 1768.5,-19.5 1815.5,-19.5 1815.5,-0.5 1768.5,-0.5"/>
<text text-anchor="middle" x="1792" y="-7.5" font-family="Helvetica,sans-Serif" font-size="10.00">vector</text>
</a>
</g>
</g>
<!-- Node3&#45;&gt;Node23 -->
<g id="edge22" class="edge">
<title>Node3&#45;&gt;Node23</title>
<path fill="none" stroke="midnightblue" d="M992.58,-63.69C1142.77,-59.52 1592.07,-45.34 1758.3,-19.88"/>
<polygon fill="midnightblue" stroke="midnightblue" points="1759.05,-23.31 1768.37,-18.27 1757.94,-16.4 1759.05,-23.31"/>
</g>
<!-- Node24 -->
<g id="node24" class="node">
<title>Node24</title>
<g id="a_node24"><a xlink:title=" ">
<polygon fill="none" stroke="#bfbfbf" points="1026,-0.5 1026,-19.5 1070,-19.5 1070,-0.5 1026,-0.5"/>
<text text-anchor="middle" x="1048" y="-7.5" font-family="Helvetica,sans-Serif" font-size="10.00">ecrt.h</text>
</a>
</g>
</g>
<!-- Node3&#45;&gt;Node24 -->
<g id="edge23" class="edge">
<title>Node3&#45;&gt;Node24</title>
<path fill="none" stroke="midnightblue" d="M959.87,-56.32C976.71,-47.66 1002.81,-34.24 1022.24,-24.25"/>
<polygon fill="midnightblue" stroke="midnightblue" points="1023.88,-27.34 1031.17,-19.65 1020.68,-21.12 1023.88,-27.34"/>
</g>
<!-- Node25 -->
<g id="node25" class="node">
<title>Node25</title>
<g id="a_node25"><a xlink:href="object__dictionary_8hpp.html" target="_top" xlink:title=" ">
<polygon fill="none" stroke="black" points="1088,-0.5 1088,-19.5 1208,-19.5 1208,-0.5 1088,-0.5"/>
<text text-anchor="middle" x="1148" y="-7.5" font-family="Helvetica,sans-Serif" font-size="10.00">object_dictionary.hpp</text>
</a>
</g>
</g>
<!-- Node3&#45;&gt;Node25 -->
<g id="edge24" class="edge">
<title>Node3&#45;&gt;Node25</title>
<path fill="none" stroke="midnightblue" d="M975.48,-56.44C1010.72,-47.16 1067.1,-32.31 1105.76,-22.13"/>
<polygon fill="midnightblue" stroke="midnightblue" points="1106.89,-25.45 1115.67,-19.52 1105.11,-18.68 1106.89,-25.45"/>
</g>
<!-- Node26&#45;&gt;Node3 -->
<g id="edge26" class="edge">
<title>Node26&#45;&gt;Node3</title>
<path fill="none" stroke="midnightblue" d="M1204.7,-113.03C1150.78,-103.55 1060.61,-87.69 1001.47,-77.28"/>
<polygon fill="midnightblue" stroke="midnightblue" points="1001.98,-73.82 991.53,-75.54 1000.77,-80.72 1001.98,-73.82"/>
</g>
<!-- Node27&#45;&gt;Node2 -->
<g id="edge28" class="edge">
<title>Node27&#45;&gt;Node2</title>
<path fill="none" stroke="midnightblue" d="M1465.76,-224.44C1440.13,-215.4 1399.51,-201.06 1370.76,-190.92"/>
<polygon fill="midnightblue" stroke="midnightblue" points="1371.72,-187.54 1361.13,-187.52 1369.39,-194.15 1371.72,-187.54"/>
</g>
<!-- Node28 -->
<g id="node28" class="node">
<title>Node28</title>
<g id="a_node28"><a xlink:href="timing_8hpp.html" target="_top" xlink:title=" ">
<polygon fill="none" stroke="black" points="1889.5,-56.5 1889.5,-75.5 1958.5,-75.5 1958.5,-56.5 1889.5,-56.5"/>
<text text-anchor="middle" x="1924" y="-63.5" font-family="Helvetica,sans-Serif" font-size="10.00">timing.hpp</text>
</a>
</g>
</g>
<!-- Node27&#45;&gt;Node28 -->
<g id="edge29" class="edge">
<title>Node27&#45;&gt;Node28</title>
<path fill="none" stroke="midnightblue" d="M1512.42,-224.42C1584.23,-196.96 1808.69,-111.11 1892.24,-79.15"/>
<polygon fill="midnightblue" stroke="midnightblue" points="1893.62,-82.37 1901.71,-75.52 1891.12,-75.83 1893.62,-82.37"/>
</g>
<!-- Node28&#45;&gt;Node4 -->
<g id="edge39" class="edge">
<title>Node28&#45;&gt;Node4</title>
<path fill="none" stroke="midnightblue" d="M1889.3,-61.41C1827.88,-54.83 1696.14,-39.68 1586,-20 1585.9,-19.98 1585.8,-19.96 1585.7,-19.95"/>
<polygon fill="midnightblue" stroke="midnightblue" points="1586.57,-16.55 1576.08,-18.07 1585.23,-23.42 1586.57,-16.55"/>
</g>
<!-- Node28&#45;&gt;Node21 -->
<g id="edge31" class="edge">
<title>Node28&#45;&gt;Node21</title>
<path fill="none" stroke="midnightblue" d="M1913.56,-56.32C1903.85,-48.26 1889.18,-36.08 1877.5,-26.37"/>
<polygon fill="midnightblue" stroke="midnightblue" points="1879.56,-23.53 1869.63,-19.83 1875.09,-28.92 1879.56,-23.53"/>
</g>
<!-- Node28&#45;&gt;Node22 -->
<g id="edge32" class="edge">
<title>Node28&#45;&gt;Node22</title>
<path fill="none" stroke="midnightblue" d="M1889.47,-62.74C1819.42,-57.85 1655.43,-44.78 1508.48,-20.07"/>
<polygon fill="midnightblue" stroke="midnightblue" points="1508.83,-16.57 1498.38,-18.34 1507.65,-23.47 1508.83,-16.57"/>
</g>
<!-- Node28&#45;&gt;Node23 -->
<g id="edge30" class="edge">
<title>Node28&#45;&gt;Node23</title>
<path fill="none" stroke="midnightblue" d="M1903.08,-56.44C1881.26,-47.52 1846.85,-33.44 1822.11,-23.32"/>
<polygon fill="midnightblue" stroke="midnightblue" points="1823.4,-20.06 1812.82,-19.52 1820.75,-26.54 1823.4,-20.06"/>
</g>
<!-- Node29 -->
<g id="node29" class="node">
<title>Node29</title>
<g id="a_node29"><a xlink:title=" ">
<polygon fill="none" stroke="#bfbfbf" points="1964.5,-0.5 1964.5,-19.5 2029.5,-19.5 2029.5,-0.5 1964.5,-0.5"/>
<text text-anchor="middle" x="1997" y="-7.5" font-family="Helvetica,sans-Serif" font-size="10.00">functional</text>
</a>
</g>
</g>
<!-- Node28&#45;&gt;Node29 -->
<g id="edge33" class="edge">
<title>Node28&#45;&gt;Node29</title>
<path fill="none" stroke="midnightblue" d="M1935.73,-56.32C1946.84,-48.11 1963.74,-35.6 1976.98,-25.81"/>
<polygon fill="midnightblue" stroke="midnightblue" points="1979.1,-28.59 1985.06,-19.83 1974.94,-22.97 1979.1,-28.59"/>
</g>
<!-- Node30 -->
<g id="node30" class="node">
<title>Node30</title>
<g id="a_node30"><a xlink:title=" ">
<polygon fill="none" stroke="#bfbfbf" points="1902,-0.5 1902,-19.5 1946,-19.5 1946,-0.5 1902,-0.5"/>
<text text-anchor="middle" x="1924" y="-7.5" font-family="Helvetica,sans-Serif" font-size="10.00">string</text>
</a>
</g>
</g>
<!-- Node28&#45;&gt;Node30 -->
<g id="edge34" class="edge">
<title>Node28&#45;&gt;Node30</title>
<path fill="none" stroke="midnightblue" d="M1924,-56.08C1924,-49.01 1924,-38.86 1924,-29.99"/>
<polygon fill="midnightblue" stroke="midnightblue" points="1927.5,-29.75 1924,-19.75 1920.5,-29.75 1927.5,-29.75"/>
</g>
<!-- Node31 -->
<g id="node31" class="node">
<title>Node31</title>
<g id="a_node31"><a xlink:title=" ">
<polygon fill="none" stroke="#bfbfbf" points="2048,-0.5 2048,-19.5 2098,-19.5 2098,-0.5 2048,-0.5"/>
<text text-anchor="middle" x="2073" y="-7.5" font-family="Helvetica,sans-Serif" font-size="10.00">cstdint</text>
</a>
</g>
</g>
<!-- Node28&#45;&gt;Node31 -->
<g id="edge35" class="edge">
<title>Node28&#45;&gt;Node31</title>
<path fill="none" stroke="midnightblue" d="M1947.61,-56.44C1972.46,-47.44 2011.77,-33.19 2039.75,-23.05"/>
<polygon fill="midnightblue" stroke="midnightblue" points="2041.29,-26.21 2049.5,-19.52 2038.91,-19.63 2041.29,-26.21"/>
</g>
<!-- Node32 -->
<g id="node32" class="node">
<title>Node32</title>
<g id="a_node32"><a xlink:title=" ">
<polygon fill="none" stroke="#bfbfbf" points="2116,-0.5 2116,-19.5 2160,-19.5 2160,-0.5 2116,-0.5"/>
<text text-anchor="middle" x="2138" y="-7.5" font-family="Helvetica,sans-Serif" font-size="10.00">ctime</text>
</a>
</g>
</g>
<!-- Node28&#45;&gt;Node32 -->
<g id="edge36" class="edge">
<title>Node28&#45;&gt;Node32</title>
<path fill="none" stroke="midnightblue" d="M1958.51,-56.96C1993.37,-48.75 2048.98,-35.37 2105.81,-20.24"/>
<polygon fill="midnightblue" stroke="midnightblue" points="2106.93,-23.57 2115.68,-17.6 2105.11,-16.8 2106.93,-23.57"/>
</g>
<!-- Node33 -->
<g id="node33" class="node">
<title>Node33</title>
<g id="a_node33"><a xlink:title=" ">
<polygon fill="none" stroke="#bfbfbf" points="2178.5,-0.5 2178.5,-19.5 2217.5,-19.5 2217.5,-0.5 2178.5,-0.5"/>
<text text-anchor="middle" x="2198" y="-7.5" font-family="Helvetica,sans-Serif" font-size="10.00">ratio</text>
</a>
</g>
</g>
<!-- Node28&#45;&gt;Node33 -->
<g id="edge37" class="edge">
<title>Node28&#45;&gt;Node33</title>
<path fill="none" stroke="midnightblue" d="M1958.76,-59.95C2004.64,-53 2088.04,-39.36 2168.62,-19.83"/>
<polygon fill="midnightblue" stroke="midnightblue" points="2169.56,-23.2 2178.43,-17.42 2167.89,-16.41 2169.56,-23.2"/>
</g>
<!-- Node34 -->
<g id="node34" class="node">
<title>Node34</title>
<g id="a_node34"><a xlink:title=" ">
<polygon fill="none" stroke="#bfbfbf" points="2235.5,-0.5 2235.5,-19.5 2290.5,-19.5 2290.5,-0.5 2235.5,-0.5"/>
<text text-anchor="middle" x="2263" y="-7.5" font-family="Helvetica,sans-Serif" font-size="10.00">fstream</text>
</a>
</g>
</g>
<!-- Node28&#45;&gt;Node34 -->
<g id="edge38" class="edge">
<title>Node28&#45;&gt;Node34</title>
<path fill="none" stroke="midnightblue" d="M1958.72,-60.96C2013.47,-54.35 2123.36,-40.11 2225.31,-20.19"/>
<polygon fill="midnightblue" stroke="midnightblue" points="2226.02,-23.62 2235.15,-18.25 2224.66,-16.75 2226.02,-23.62"/>
</g>
<!-- Node35&#45;&gt;Node4 -->
<g id="edge47" class="edge">
<title>Node35&#45;&gt;Node4</title>
<path fill="none" stroke="midnightblue" d="M1483.05,-56.32C1494.46,-48.11 1511.83,-35.6 1525.43,-25.81"/>
<polygon fill="midnightblue" stroke="midnightblue" points="1527.66,-28.52 1533.73,-19.83 1523.57,-22.84 1527.66,-28.52"/>
</g>
<!-- Node35&#45;&gt;Node7 -->
<g id="edge42" class="edge">
<title>Node35&#45;&gt;Node7</title>
<path fill="none" stroke="midnightblue" d="M1448.18,-56.44C1424.17,-47.44 1386.17,-33.19 1359.13,-23.05"/>
<polygon fill="midnightblue" stroke="midnightblue" points="1360.3,-19.75 1349.71,-19.52 1357.84,-26.3 1360.3,-19.75"/>
</g>
<!-- Node35&#45;&gt;Node11 -->
<g id="edge43" class="edge">
<title>Node35&#45;&gt;Node11</title>
<path fill="none" stroke="midnightblue" d="M1459.11,-56.32C1447.85,-48.11 1430.71,-35.6 1417.29,-25.81"/>
<polygon fill="midnightblue" stroke="midnightblue" points="1419.25,-22.9 1409.11,-19.83 1415.12,-28.56 1419.25,-22.9"/>
</g>
<!-- Node35&#45;&gt;Node16 -->
<g id="edge45" class="edge">
<title>Node35&#45;&gt;Node16</title>
<path fill="none" stroke="midnightblue" d="M1436.62,-56.44C1397.17,-46.63 1332.7,-30.59 1291.86,-20.42"/>
<polygon fill="midnightblue" stroke="midnightblue" points="1292.56,-16.99 1282.01,-17.97 1290.87,-23.78 1292.56,-16.99"/>
</g>
<!-- Node35&#45;&gt;Node30 -->
<g id="edge41" class="edge">
<title>Node35&#45;&gt;Node30</title>
<path fill="none" stroke="midnightblue" d="M1526.09,-62.23C1605.13,-57.58 1755.31,-46.19 1891.56,-19.96"/>
<polygon fill="midnightblue" stroke="midnightblue" points="1892.62,-23.32 1901.76,-17.96 1891.28,-16.45 1892.62,-23.32"/>
</g>
<!-- Node36 -->
<g id="node36" class="node">
<title>Node36</title>
<g id="a_node36"><a xlink:title=" ">
<polygon fill="none" stroke="#bfbfbf" points="1594.5,-0.5 1594.5,-19.5 1641.5,-19.5 1641.5,-0.5 1594.5,-0.5"/>
<text text-anchor="middle" x="1618" y="-7.5" font-family="Helvetica,sans-Serif" font-size="10.00">fcntl.h</text>
</a>
</g>
</g>
<!-- Node35&#45;&gt;Node36 -->
<g id="edge44" class="edge">
<title>Node35&#45;&gt;Node36</title>
<path fill="none" stroke="midnightblue" d="M1494.29,-56.44C1518.81,-47.44 1557.6,-33.19 1585.2,-23.05"/>
<polygon fill="midnightblue" stroke="midnightblue" points="1586.64,-26.25 1594.82,-19.52 1584.22,-19.68 1586.64,-26.25"/>
</g>
<!-- Node37 -->
<g id="node37" class="node">
<title>Node37</title>
<g id="a_node37"><a xlink:title=" ">
<polygon fill="none" stroke="#bfbfbf" points="1659.5,-0.5 1659.5,-19.5 1750.5,-19.5 1750.5,-0.5 1659.5,-0.5"/>
<text text-anchor="middle" x="1705" y="-7.5" font-family="Helvetica,sans-Serif" font-size="10.00">linux/joystick.h</text>
</a>
</g>
</g>
<!-- Node35&#45;&gt;Node37 -->
<g id="edge46" class="edge">
<title>Node35&#45;&gt;Node37</title>
<path fill="none" stroke="midnightblue" d="M1508.08,-56.44C1548.73,-47.06 1614.03,-31.99 1658.18,-21.8"/>
<polygon fill="midnightblue" stroke="midnightblue" points="1659.14,-25.18 1668.1,-19.52 1657.56,-18.35 1659.14,-25.18"/>
</g>
</g>
</svg>
        <g id="navigator" transform="translate(0 0)" fill="#404254">
                <rect fill="#f2f5e9" fill-opacity="0.5" stroke="#606060" stroke-width=".5" x="0" y="0" width="60" height="60"/>
                <use id="zoomplus" xlink:href="#zoomPlus" x="17" y="9" onmousedown="handleZoom(evt,'in')"/>
                <use id="zoomminus" xlink:href="#zoomMin" x="42" y="9" onmousedown="handleZoom(evt,'out')"/>
                <use id="reset" xlink:href="#resetDef" x="30" y="36" onmousedown="handleReset()"/>
                <g id="arrowUp" xlink:href="#dirArrow" transform="translate(30 24)" onmousedown="handlePan(0,-1)">
                  <use xlink:href="#rim" fill="#404040">
                        <set attributeName="fill" to="#808080" begin="arrowUp.mouseover" end="arrowUp.mouseout"/>
                  </use>
                  <path fill="none" stroke="white" stroke-width="1.5" d="M0,-3.0v7 M-2.5,-0.5L0,-3.0L2.5,-0.5"/>
                </g>
                <g id="arrowRight" xlink:href="#dirArrow" transform="rotate(90) translate(36 -43)" onmousedown="handlePan(1,0)">
                  <use xlink:href="#rim" fill="#404040">
                        <set attributeName="fill" to="#808080" begin="arrowRight.mouseover" end="arrowRight.mouseout"/>
                  </use>
                  <path fill="none" stroke="white" stroke-width="1.5" d="M0,-3.0v7 M-2.5,-0.5L0,-3.0L2.5,-0.5"/>
                </g>
                <g id="arrowDown" xlink:href="#dirArrow" transform="rotate(180) translate(-30 -48)" onmousedown="handlePan(0,1)">
                  <use xlink:href="#rim" fill="#404040">
                        <set attributeName="fill" to="#808080" begin="arrowDown.mouseover" end="arrowDown.mouseout"/>
                  </use>
                  <path fill="none" stroke="white" stroke-width="1.5" d="M0,-3.0v7 M-2.5,-0.5L0,-3.0L2.5,-0.5"/>
                </g>
                <g id="arrowLeft" xlink:href="#dirArrow" transform="rotate(270) translate(-36 17)" onmousedown="handlePan(-1,0)">
                  <use xlink:href="#rim" fill="#404040">
                        <set attributeName="fill" to="#808080" begin="arrowLeft.mouseover" end="arrowLeft.mouseout"/>
                  </use>
                  <path fill="none" stroke="white" stroke-width="1.5" d="M0,-3.0v7 M-2.5,-0.5L0,-3.0L2.5,-0.5"/>
                </g>
        </g>
        <svg viewBox="0 0 15 15" width="100%" height="30px" preserveAspectRatio="xMaxYMin meet">
         <g id="arrow_out" transform="scale(0.3 0.3)">
          <a xlink:href="main_8cpp__incl_org.svg" target="_base">
           <rect id="button" ry="5" rx="5" y="6" x="6" height="38" width="38"
                fill="#f2f5e9" fill-opacity="0.5" stroke="#606060" stroke-width="1.0"/>
           <path id="arrow"
             d="M 11.500037,31.436501 C 11.940474,20.09759 22.043105,11.32322 32.158766,21.979434 L 37.068811,17.246167 C 37.068811,17.246167 37.088388,32 37.088388,32 L 22.160133,31.978069 C 22.160133,31.978069 26.997745,27.140456 26.997745,27.140456 C 18.528582,18.264221 13.291696,25.230495 11.500037,31.436501 z"
             style="fill:#404040;"/>
          </a>
         </g>
        </svg>
</svg>
