<?xml version="1.0" encoding="UTF-8" standalone="no"?>
<!DOCTYPE svg PUBLIC "-//W3C//DTD SVG 1.1//EN"
 "http://www.w3.org/Graphics/SVG/1.1/DTD/svg11.dtd">
<!-- Generated by graphviz version 3.0.0 (20220413.0106)
 -->
<!-- Title: src/main.cpp Pages: 1 -->
<!--zoomable 308 -->
<svg id="main" version="1.1" xmlns="http://www.w3.org/2000/svg" xmlns:xlink="http://www.w3.org/1999/xlink" xml:space="preserve" onload="init(evt)">
<style type="text/css"><![CDATA[
.edge:hover path { stroke: red; }
.edge:hover polygon { stroke: red; fill: red; }
]]></style>
<script type="text/javascript"><![CDATA[
var edges = document.getElementsByTagName('g');
if (edges && edges.length) {
  for (var i=0;i<edges.length;i++) {
    if (edges[i].id.substr(0,4)=='edge') {
      edges[i].setAttribute('class','edge');
    }
  }
}
]]></script>
        <defs>
                <circle id="rim" cx="0" cy="0" r="7"/>
                <circle id="rim2" cx="0" cy="0" r="3.5"/>
                <g id="zoomPlus">
                        <use xlink:href="#rim" fill="#404040">
                                <set attributeName="fill" to="#808080" begin="zoomplus.mouseover" end="zoomplus.mouseout"/>
                        </use>
                        <path d="M-4,0h8M0,-4v8" fill="none" stroke="white" stroke-width="1.5" pointer-events="none"/>
                </g>
                <g id="zoomMin">
                        <use xlink:href="#rim" fill="#404040">
                                <set attributeName="fill" to="#808080" begin="zoomminus.mouseover" end="zoomminus.mouseout"/>
                        </use>
                        <path d="M-4,0h8" fill="none" stroke="white" stroke-width="1.5" pointer-events="none"/>
                </g>
                <g id="dirArrow">
                        <path fill="none" stroke="white" stroke-width="1.5" d="M0,-3.0v7 M-2.5,-0.5L0,-3.0L2.5,-0.5"/>
                </g>
               <g id="resetDef">
                       <use xlink:href="#rim2" fill="#404040">
                               <set attributeName="fill" to="#808080" begin="reset.mouseover" end="reset.mouseout"/>
                       </use>
               </g>
        </defs>

<script type="text/javascript">
var viewWidth = 2131;
var viewHeight = 308;
var sectionId = 'dynsection-0';
</script>
<script xlink:href="svgpan.js"/>
<svg id="graph" class="graph">
<g id="viewport">
<title>src/main.cpp</title>
<!-- Node1 -->
<g id="node1" class="node">
<title>Node1</title>
<g id="a_node1"><a xlink:title=" ">
<polygon fill="#bfbfbf" stroke="black" points="1267,-280.5 1267,-299.5 1339,-299.5 1339,-280.5 1267,-280.5"/>
<text text-anchor="middle" x="1303" y="-287.5" font-family="Helvetica,sans-Serif" font-size="10.00">src/main.cpp</text>
</a>
</g>
</g>
<!-- Node2 -->
<g id="node2" class="node">
<title>Node2</title>
<g id="a_node2"><a xlink:href="ecat__node_8hpp.html" target="_top" xlink:title=" ">
<polygon fill="none" stroke="black" points="1195,-168.5 1195,-187.5 1275,-187.5 1275,-168.5 1195,-168.5"/>
<text text-anchor="middle" x="1235" y="-175.5" font-family="Helvetica,sans-Serif" font-size="10.00">ecat_node.hpp</text>
</a>
</g>
</g>
<!-- Node1&#45;&gt;Node2 -->
<g id="edge1" class="edge">
<title>Node1&#45;&gt;Node2</title>
<path fill="none" stroke="midnightblue" d="M1297.66,-280.37C1286.49,-262.3 1260.45,-220.18 1245.7,-196.31"/>
<polygon fill="midnightblue" stroke="midnightblue" points="1248.55,-194.26 1240.31,-187.59 1242.59,-197.94 1248.55,-194.26"/>
</g>
<!-- Node27 -->
<g id="node27" class="node">
<title>Node27</title>
<g id="a_node27"><a xlink:href="ecat__lifecycle_8hpp.html" target="_top" xlink:title=" ">
<polygon fill="none" stroke="black" points="1331,-224.5 1331,-243.5 1425,-243.5 1425,-224.5 1331,-224.5"/>
<text text-anchor="middle" x="1378" y="-231.5" font-family="Helvetica,sans-Serif" font-size="10.00">ecat_lifecycle.hpp</text>
</a>
</g>
</g>
<!-- Node1&#45;&gt;Node27 -->
<g id="edge27" class="edge">
<title>Node1&#45;&gt;Node27</title>
<path fill="none" stroke="midnightblue" d="M1315.05,-280.32C1326.46,-272.11 1343.83,-259.6 1357.43,-249.81"/>
<polygon fill="midnightblue" stroke="midnightblue" points="1359.66,-252.52 1365.73,-243.83 1355.57,-246.84 1359.66,-252.52"/>
</g>
<!-- Node35 -->
<g id="node35" class="node">
<title>Node35</title>
<g id="a_node35"><a xlink:href="xbox__controller_8hpp.html" target="_top" xlink:title=" ">
<polygon fill="none" stroke="black" points="1309.5,-56.5 1309.5,-75.5 1408.5,-75.5 1408.5,-56.5 1309.5,-56.5"/>
<text text-anchor="middle" x="1359" y="-63.5" font-family="Helvetica,sans-Serif" font-size="10.00">xbox_controller.hpp</text>
</a>
</g>
</g>
<!-- Node1&#45;&gt;Node35 -->
<g id="edge40" class="edge">
<title>Node1&#45;&gt;Node35</title>
<path fill="none" stroke="midnightblue" d="M1305.2,-280.3C1313.45,-247.56 1342.76,-131.38 1354.29,-85.67"/>
<polygon fill="midnightblue" stroke="midnightblue" points="1357.71,-86.44 1356.76,-75.88 1350.92,-84.72 1357.71,-86.44"/>
</g>
<!-- Node3 -->
<g id="node3" class="node">
<title>Node3</title>
<g id="a_node3"><a xlink:href="ecat__globals_8hpp.html" target="_top" xlink:title=" ">
<polygon fill="none" stroke="black" points="827.5,-56.5 827.5,-75.5 916.5,-75.5 916.5,-56.5 827.5,-56.5"/>
<text text-anchor="middle" x="872" y="-63.5" font-family="Helvetica,sans-Serif" font-size="10.00">ecat_globals.hpp</text>
</a>
</g>
</g>
<!-- Node2&#45;&gt;Node3 -->
<g id="edge2" class="edge">
<title>Node2&#45;&gt;Node3</title>
<path fill="none" stroke="midnightblue" d="M1206.82,-168.46C1142.23,-148.89 983.43,-100.77 910.17,-78.57"/>
<polygon fill="midnightblue" stroke="midnightblue" points="911,-75.16 900.41,-75.61 908.97,-81.86 911,-75.16"/>
</g>
<!-- Node26 -->
<g id="node26" class="node">
<title>Node26</title>
<g id="a_node26"><a xlink:href="ecat__slave_8hpp.html" target="_top" xlink:title=" ">
<polygon fill="none" stroke="black" points="1114,-112.5 1114,-131.5 1196,-131.5 1196,-112.5 1114,-112.5"/>
<text text-anchor="middle" x="1155" y="-119.5" font-family="Helvetica,sans-Serif" font-size="10.00">ecat_slave.hpp</text>
</a>
</g>
</g>
<!-- Node2&#45;&gt;Node26 -->
<g id="edge25" class="edge">
<title>Node2&#45;&gt;Node26</title>
<path fill="none" stroke="midnightblue" d="M1222.15,-168.32C1209.78,-159.98 1190.87,-147.21 1176.26,-137.35"/>
<polygon fill="midnightblue" stroke="midnightblue" points="1178.07,-134.35 1167.82,-131.65 1174.15,-140.15 1178.07,-134.35"/>
</g>
<!-- Node4 -->
<g id="node4" class="node">
<title>Node4</title>
<g id="a_node4"><a xlink:title=" ">
<polygon fill="none" stroke="#bfbfbf" points="1401,-0.5 1401,-19.5 1455,-19.5 1455,-0.5 1401,-0.5"/>
<text text-anchor="middle" x="1428" y="-7.5" font-family="Helvetica,sans-Serif" font-size="10.00">iostream</text>
</a>
</g>
</g>
<!-- Node3&#45;&gt;Node4 -->
<g id="edge3" class="edge">
<title>Node3&#45;&gt;Node4</title>
<path fill="none" stroke="midnightblue" d="M916.82,-63.52C1005.6,-60.06 1210.15,-49.53 1391.01,-19.9"/>
<polygon fill="midnightblue" stroke="midnightblue" points="1391.68,-23.34 1400.97,-18.25 1390.53,-16.43 1391.68,-23.34"/>
</g>
<!-- Node5 -->
<g id="node5" class="node">
<title>Node5</title>
<g id="a_node5"><a xlink:title=" ">
<polygon fill="none" stroke="#bfbfbf" points="0,-0.5 0,-19.5 46,-19.5 46,-0.5 0,-0.5"/>
<text text-anchor="middle" x="23" y="-7.5" font-family="Helvetica,sans-Serif" font-size="10.00">cstring</text>
</a>
</g>
</g>
<!-- Node3&#45;&gt;Node5 -->
<g id="edge4" class="edge">
<title>Node3&#45;&gt;Node5</title>
<path fill="none" stroke="midnightblue" d="M827.44,-63.83C682.48,-59.84 224.49,-45.61 56.23,-19.78"/>
<polygon fill="midnightblue" stroke="midnightblue" points="56.71,-16.32 46.29,-18.19 55.6,-23.23 56.71,-16.32"/>
</g>
<!-- Node6 -->
<g id="node6" class="node">
<title>Node6</title>
<g id="a_node6"><a xlink:title=" ">
<polygon fill="none" stroke="#bfbfbf" points="64.5,-0.5 64.5,-19.5 111.5,-19.5 111.5,-0.5 64.5,-0.5"/>
<text text-anchor="middle" x="88" y="-7.5" font-family="Helvetica,sans-Serif" font-size="10.00">limits.h</text>
</a>
</g>
</g>
<!-- Node3&#45;&gt;Node6 -->
<g id="edge5" class="edge">
<title>Node3&#45;&gt;Node6</title>
<path fill="none" stroke="midnightblue" d="M827.2,-65.52C711.64,-66.19 394.06,-63.69 121.74,-19.73"/>
<polygon fill="midnightblue" stroke="midnightblue" points="122.1,-16.24 111.66,-18.08 120.97,-23.15 122.1,-16.24"/>
</g>
<!-- Node7 -->
<g id="node7" class="node">
<title>Node7</title>
<g id="a_node7"><a xlink:title=" ">
<polygon fill="none" stroke="#bfbfbf" points="1203.5,-0.5 1203.5,-19.5 1250.5,-19.5 1250.5,-0.5 1203.5,-0.5"/>
<text text-anchor="middle" x="1227" y="-7.5" font-family="Helvetica,sans-Serif" font-size="10.00">stdlib.h</text>
</a>
</g>
</g>
<!-- Node3&#45;&gt;Node7 -->
<g id="edge6" class="edge">
<title>Node3&#45;&gt;Node7</title>
<path fill="none" stroke="midnightblue" d="M916.58,-60.59C977.06,-54.2 1088.61,-41.01 1193.2,-19.92"/>
<polygon fill="midnightblue" stroke="midnightblue" points="1194.2,-23.29 1203.29,-17.85 1192.8,-16.43 1194.2,-23.29"/>
</g>
<!-- Node8 -->
<g id="node8" class="node">
<title>Node8</title>
<g id="a_node8"><a xlink:title=" ">
<polygon fill="none" stroke="#bfbfbf" points="130,-0.5 130,-19.5 186,-19.5 186,-0.5 130,-0.5"/>
<text text-anchor="middle" x="158" y="-7.5" font-family="Helvetica,sans-Serif" font-size="10.00">pthread.h</text>
</a>
</g>
</g>
<!-- Node3&#45;&gt;Node8 -->
<g id="edge7" class="edge">
<title>Node3&#45;&gt;Node8</title>
<path fill="none" stroke="midnightblue" d="M827.35,-64.68C720.05,-63.35 439.17,-56.51 196.26,-19.92"/>
<polygon fill="midnightblue" stroke="midnightblue" points="196.6,-16.43 186.18,-18.38 195.54,-23.35 196.6,-16.43"/>
</g>
<!-- Node9 -->
<g id="node9" class="node">
<title>Node9</title>
<g id="a_node9"><a xlink:title=" ">
<polygon fill="none" stroke="#bfbfbf" points="204,-0.5 204,-19.5 250,-19.5 250,-0.5 204,-0.5"/>
<text text-anchor="middle" x="227" y="-7.5" font-family="Helvetica,sans-Serif" font-size="10.00">errno.h</text>
</a>
</g>
</g>
<!-- Node3&#45;&gt;Node9 -->
<g id="edge8" class="edge">
<title>Node3&#45;&gt;Node9</title>
<path fill="none" stroke="midnightblue" d="M827.39,-64.78C727.29,-63.64 477.19,-57.14 260.27,-19.88"/>
<polygon fill="midnightblue" stroke="midnightblue" points="260.75,-16.41 250.29,-18.14 259.54,-23.3 260.75,-16.41"/>
</g>
<!-- Node10 -->
<g id="node10" class="node">
<title>Node10</title>
<g id="a_node10"><a xlink:title=" ">
<polygon fill="none" stroke="#bfbfbf" points="268,-0.5 268,-19.5 318,-19.5 318,-0.5 268,-0.5"/>
<text text-anchor="middle" x="293" y="-7.5" font-family="Helvetica,sans-Serif" font-size="10.00">signal.h</text>
</a>
</g>
</g>
<!-- Node3&#45;&gt;Node10 -->
<g id="edge9" class="edge">
<title>Node3&#45;&gt;Node10</title>
<path fill="none" stroke="midnightblue" d="M827.16,-63.97C735.16,-61.28 518.42,-51.99 328.05,-19.88"/>
<polygon fill="midnightblue" stroke="midnightblue" points="328.59,-16.42 318.14,-18.18 327.41,-23.32 328.59,-16.42"/>
</g>
<!-- Node11 -->
<g id="node11" class="node">
<title>Node11</title>
<g id="a_node11"><a xlink:title=" ">
<polygon fill="none" stroke="#bfbfbf" points="1268.5,-0.5 1268.5,-19.5 1313.5,-19.5 1313.5,-0.5 1268.5,-0.5"/>
<text text-anchor="middle" x="1291" y="-7.5" font-family="Helvetica,sans-Serif" font-size="10.00">stdio.h</text>
</a>
</g>
</g>
<!-- Node3&#45;&gt;Node11 -->
<g id="edge10" class="edge">
<title>Node3&#45;&gt;Node11</title>
<path fill="none" stroke="midnightblue" d="M916.6,-62.26C987.32,-57.38 1129.56,-45.43 1258.38,-20.04"/>
<polygon fill="midnightblue" stroke="midnightblue" points="1259.3,-23.42 1268.42,-18.03 1257.93,-16.56 1259.3,-23.42"/>
</g>
<!-- Node12 -->
<g id="node12" class="node">
<title>Node12</title>
<g id="a_node12"><a xlink:title=" ">
<polygon fill="none" stroke="#bfbfbf" points="336,-0.5 336,-19.5 384,-19.5 384,-0.5 336,-0.5"/>
<text text-anchor="middle" x="360" y="-7.5" font-family="Helvetica,sans-Serif" font-size="10.00">string.h</text>
</a>
</g>
</g>
<!-- Node3&#45;&gt;Node12 -->
<g id="edge11" class="edge">
<title>Node3&#45;&gt;Node12</title>
<path fill="none" stroke="midnightblue" d="M827.41,-63.38C744.06,-59.8 558.99,-49.23 394.35,-19.94"/>
<polygon fill="midnightblue" stroke="midnightblue" points="394.5,-16.41 384.04,-18.07 393.26,-23.3 394.5,-16.41"/>
</g>
<!-- Node13 -->
<g id="node13" class="node">
<title>Node13</title>
<g id="a_node13"><a xlink:title=" ">
<polygon fill="none" stroke="#bfbfbf" points="402,-0.5 402,-19.5 482,-19.5 482,-0.5 402,-0.5"/>
<text text-anchor="middle" x="442" y="-7.5" font-family="Helvetica,sans-Serif" font-size="10.00">sys/resource.h</text>
</a>
</g>
</g>
<!-- Node3&#45;&gt;Node13 -->
<g id="edge12" class="edge">
<title>Node3&#45;&gt;Node13</title>
<path fill="none" stroke="midnightblue" d="M827.3,-60.66C757.8,-53.7 619.44,-39.04 492.01,-20.07"/>
<polygon fill="midnightblue" stroke="midnightblue" points="492.49,-16.6 482.08,-18.58 491.45,-23.52 492.49,-16.6"/>
</g>
<!-- Node14 -->
<g id="node14" class="node">
<title>Node14</title>
<g id="a_node14"><a xlink:title=" ">
<polygon fill="none" stroke="#bfbfbf" points="500.5,-0.5 500.5,-19.5 561.5,-19.5 561.5,-0.5 500.5,-0.5"/>
<text text-anchor="middle" x="531" y="-7.5" font-family="Helvetica,sans-Serif" font-size="10.00">sys/time.h</text>
</a>
</g>
</g>
<!-- Node3&#45;&gt;Node14 -->
<g id="edge13" class="edge">
<title>Node3&#45;&gt;Node14</title>
<path fill="none" stroke="midnightblue" d="M827.3,-59.46C770.15,-52.13 667.96,-38.19 571.52,-20.17"/>
<polygon fill="midnightblue" stroke="midnightblue" points="572.08,-16.72 561.61,-18.3 570.79,-23.6 572.08,-16.72"/>
</g>
<!-- Node15 -->
<g id="node15" class="node">
<title>Node15</title>
<g id="a_node15"><a xlink:title=" ">
<polygon fill="none" stroke="#bfbfbf" points="579.5,-0.5 579.5,-19.5 644.5,-19.5 644.5,-0.5 579.5,-0.5"/>
<text text-anchor="middle" x="612" y="-7.5" font-family="Helvetica,sans-Serif" font-size="10.00">sys/types.h</text>
</a>
</g>
</g>
<!-- Node3&#45;&gt;Node15 -->
<g id="edge14" class="edge">
<title>Node3&#45;&gt;Node15</title>
<path fill="none" stroke="midnightblue" d="M829.57,-56.46C787.5,-47.95 720.92,-34.38 654.47,-20.29"/>
<polygon fill="midnightblue" stroke="midnightblue" points="655.17,-16.87 644.67,-18.21 653.72,-23.71 655.17,-16.87"/>
</g>
<!-- Node16 -->
<g id="node16" class="node">
<title>Node16</title>
<g id="a_node16"><a xlink:title=" ">
<polygon fill="none" stroke="#bfbfbf" points="1135,-0.5 1135,-19.5 1185,-19.5 1185,-0.5 1135,-0.5"/>
<text text-anchor="middle" x="1160" y="-7.5" font-family="Helvetica,sans-Serif" font-size="10.00">unistd.h</text>
</a>
</g>
</g>
<!-- Node3&#45;&gt;Node16 -->
<g id="edge15" class="edge">
<title>Node3&#45;&gt;Node16</title>
<path fill="none" stroke="midnightblue" d="M916.73,-58.23C965.55,-50.59 1046.23,-37.21 1124.75,-20.13"/>
<polygon fill="midnightblue" stroke="midnightblue" points="1125.79,-23.49 1134.81,-17.92 1124.29,-16.65 1125.79,-23.49"/>
</g>
<!-- Node17 -->
<g id="node17" class="node">
<title>Node17</title>
<g id="a_node17"><a xlink:title=" ">
<polygon fill="none" stroke="#bfbfbf" points="662.5,-0.5 662.5,-19.5 705.5,-19.5 705.5,-0.5 662.5,-0.5"/>
<text text-anchor="middle" x="684" y="-7.5" font-family="Helvetica,sans-Serif" font-size="10.00">time.h</text>
</a>
</g>
</g>
<!-- Node3&#45;&gt;Node17 -->
<g id="edge16" class="edge">
<title>Node3&#45;&gt;Node17</title>
<path fill="none" stroke="midnightblue" d="M841.67,-56.5C811.83,-48.1 764.71,-34.77 715.49,-20.41"/>
<polygon fill="midnightblue" stroke="midnightblue" points="716.2,-16.97 705.62,-17.53 714.24,-23.69 716.2,-16.97"/>
</g>
<!-- Node18 -->
<g id="node18" class="node">
<title>Node18</title>
<g id="a_node18"><a xlink:title=" ">
<polygon fill="none" stroke="#bfbfbf" points="723.5,-0.5 723.5,-19.5 792.5,-19.5 792.5,-0.5 723.5,-0.5"/>
<text text-anchor="middle" x="758" y="-7.5" font-family="Helvetica,sans-Serif" font-size="10.00">sys/mman.h</text>
</a>
</g>
</g>
<!-- Node3&#45;&gt;Node18 -->
<g id="edge17" class="edge">
<title>Node3&#45;&gt;Node18</title>
<path fill="none" stroke="midnightblue" d="M853.94,-56.44C835.43,-47.68 806.42,-33.94 785.14,-23.86"/>
<polygon fill="midnightblue" stroke="midnightblue" points="786.51,-20.63 775.98,-19.52 783.52,-26.96 786.51,-20.63"/>
</g>
<!-- Node19 -->
<g id="node19" class="node">
<title>Node19</title>
<g id="a_node19"><a xlink:title=" ">
<polygon fill="none" stroke="#bfbfbf" points="810.5,-0.5 810.5,-19.5 863.5,-19.5 863.5,-0.5 810.5,-0.5"/>
<text text-anchor="middle" x="837" y="-7.5" font-family="Helvetica,sans-Serif" font-size="10.00">malloc.h</text>
</a>
</g>
</g>
<!-- Node3&#45;&gt;Node19 -->
<g id="edge18" class="edge">
<title>Node3&#45;&gt;Node19</title>
<path fill="none" stroke="midnightblue" d="M866.22,-56.08C861.33,-48.53 854.17,-37.49 848.17,-28.23"/>
<polygon fill="midnightblue" stroke="midnightblue" points="851.05,-26.24 842.67,-19.75 845.17,-30.05 851.05,-26.24"/>
</g>
<!-- Node20 -->
<g id="node20" class="node">
<title>Node20</title>
<g id="a_node20"><a xlink:title=" ">
<polygon fill="none" stroke="#bfbfbf" points="882,-0.5 882,-19.5 932,-19.5 932,-0.5 882,-0.5"/>
<text text-anchor="middle" x="907" y="-7.5" font-family="Helvetica,sans-Serif" font-size="10.00">sched.h</text>
</a>
</g>
</g>
<!-- Node3&#45;&gt;Node20 -->
<g id="edge19" class="edge">
<title>Node3&#45;&gt;Node20</title>
<path fill="none" stroke="midnightblue" d="M877.78,-56.08C882.67,-48.53 889.83,-37.49 895.83,-28.23"/>
<polygon fill="midnightblue" stroke="midnightblue" points="898.83,-30.05 901.33,-19.75 892.95,-26.24 898.83,-30.05"/>
</g>
<!-- Node21 -->
<g id="node21" class="node">
<title>Node21</title>
<g id="a_node21"><a xlink:title=" ">
<polygon fill="none" stroke="#bfbfbf" points="1695,-0.5 1695,-19.5 1741,-19.5 1741,-0.5 1695,-0.5"/>
<text text-anchor="middle" x="1718" y="-7.5" font-family="Helvetica,sans-Serif" font-size="10.00">chrono</text>
</a>
</g>
</g>
<!-- Node3&#45;&gt;Node21 -->
<g id="edge20" class="edge">
<title>Node3&#45;&gt;Node21</title>
<path fill="none" stroke="midnightblue" d="M916.66,-63.82C1061.37,-59.8 1517.24,-45.52 1684.81,-19.78"/>
<polygon fill="midnightblue" stroke="midnightblue" points="1685.4,-23.23 1694.71,-18.19 1684.29,-16.32 1685.4,-23.23"/>
</g>
<!-- Node22 -->
<g id="node22" class="node">
<title>Node22</title>
<g id="a_node22"><a xlink:title=" ">
<polygon fill="none" stroke="#bfbfbf" points="1331.5,-0.5 1331.5,-19.5 1382.5,-19.5 1382.5,-0.5 1331.5,-0.5"/>
<text text-anchor="middle" x="1357" y="-7.5" font-family="Helvetica,sans-Serif" font-size="10.00">memory</text>
</a>
</g>
</g>
<!-- Node3&#45;&gt;Node22 -->
<g id="edge21" class="edge">
<title>Node3&#45;&gt;Node22</title>
<path fill="none" stroke="midnightblue" d="M916.82,-62.9C996.5,-58.65 1168.11,-47.18 1321.41,-20.03"/>
<polygon fill="midnightblue" stroke="midnightblue" points="1322.26,-23.44 1331.48,-18.22 1321.02,-16.55 1322.26,-23.44"/>
</g>
<!-- Node23 -->
<g id="node23" class="node">
<title>Node23</title>
<g id="a_node23"><a xlink:title=" ">
<polygon fill="none" stroke="#bfbfbf" points="1633,-0.5 1633,-19.5 1677,-19.5 1677,-0.5 1633,-0.5"/>
<text text-anchor="middle" x="1655" y="-7.5" font-family="Helvetica,sans-Serif" font-size="10.00">vector</text>
</a>
</g>
</g>
<!-- Node3&#45;&gt;Node23 -->
<g id="edge22" class="edge">
<title>Node3&#45;&gt;Node23</title>
<path fill="none" stroke="midnightblue" d="M916.9,-63.63C1054.15,-59.22 1467.6,-44.41 1622.52,-19.8"/>
<polygon fill="midnightblue" stroke="midnightblue" points="1623.5,-23.19 1632.79,-18.09 1622.35,-16.28 1623.5,-23.19"/>
</g>
<!-- Node24 -->
<g id="node24" class="node">
<title>Node24</title>
<g id="a_node24"><a xlink:title=" ">
<polygon fill="none" stroke="#bfbfbf" points="950.5,-0.5 950.5,-19.5 991.5,-19.5 991.5,-0.5 950.5,-0.5"/>
<text text-anchor="middle" x="971" y="-7.5" font-family="Helvetica,sans-Serif" font-size="10.00">ecrt.h</text>
</a>
</g>
</g>
<!-- Node3&#45;&gt;Node24 -->
<g id="edge23" class="edge">
<title>Node3&#45;&gt;Node24</title>
<path fill="none" stroke="midnightblue" d="M887.91,-56.32C903.64,-47.74 927.94,-34.49 946.21,-24.52"/>
<polygon fill="midnightblue" stroke="midnightblue" points="948.03,-27.52 955.13,-19.65 944.68,-21.37 948.03,-27.52"/>
</g>
<!-- Node25 -->
<g id="node25" class="node">
<title>Node25</title>
<g id="a_node25"><a xlink:href="object__dictionary_8hpp.html" target="_top" xlink:title=" ">
<polygon fill="none" stroke="black" points="1009.5,-0.5 1009.5,-19.5 1116.5,-19.5 1116.5,-0.5 1009.5,-0.5"/>
<text text-anchor="middle" x="1063" y="-7.5" font-family="Helvetica,sans-Serif" font-size="10.00">object_dictionary.hpp</text>
</a>
</g>
</g>
<!-- Node3&#45;&gt;Node25 -->
<g id="edge24" class="edge">
<title>Node3&#45;&gt;Node25</title>
<path fill="none" stroke="midnightblue" d="M902.26,-56.44C934.96,-47.2 987.18,-32.44 1023.18,-22.26"/>
<polygon fill="midnightblue" stroke="midnightblue" points="1024.21,-25.61 1032.88,-19.52 1022.3,-18.87 1024.21,-25.61"/>
</g>
<!-- Node26&#45;&gt;Node3 -->
<g id="edge26" class="edge">
<title>Node26&#45;&gt;Node3</title>
<path fill="none" stroke="midnightblue" d="M1113.85,-113.15C1064.49,-103.73 981.58,-87.91 926.82,-77.46"/>
<polygon fill="midnightblue" stroke="midnightblue" points="927.42,-74.01 916.94,-75.58 926.11,-80.89 927.42,-74.01"/>
</g>
<!-- Node27&#45;&gt;Node2 -->
<g id="edge28" class="edge">
<title>Node27&#45;&gt;Node2</title>
<path fill="none" stroke="midnightblue" d="M1355.34,-224.44C1331.6,-215.48 1294.09,-201.31 1267.26,-191.18"/>
<polygon fill="midnightblue" stroke="midnightblue" points="1268.14,-187.77 1257.55,-187.52 1265.67,-194.32 1268.14,-187.77"/>
</g>
<!-- Node28 -->
<g id="node28" class="node">
<title>Node28</title>
<g id="a_node28"><a xlink:href="timing_8hpp.html" target="_top" xlink:title=" ">
<polygon fill="none" stroke="black" points="1749.5,-56.5 1749.5,-75.5 1810.5,-75.5 1810.5,-56.5 1749.5,-56.5"/>
<text text-anchor="middle" x="1780" y="-63.5" font-family="Helvetica,sans-Serif" font-size="10.00">timing.hpp</text>
</a>
</g>
</g>
<!-- Node27&#45;&gt;Node28 -->
<g id="edge29" class="edge">
<title>Node27&#45;&gt;Node28</title>
<path fill="none" stroke="midnightblue" d="M1398.77,-224.42C1465.07,-197.05 1671.86,-111.65 1749.84,-79.45"/>
<polygon fill="midnightblue" stroke="midnightblue" points="1751.21,-82.68 1759.12,-75.62 1748.54,-76.21 1751.21,-82.68"/>
</g>
<!-- Node28&#45;&gt;Node4 -->
<g id="edge39" class="edge">
<title>Node28&#45;&gt;Node4</title>
<path fill="none" stroke="midnightblue" d="M1749.43,-61.63C1692.96,-55.18 1568.61,-39.95 1465,-20 1464.9,-19.98 1464.8,-19.96 1464.7,-19.94"/>
<polygon fill="midnightblue" stroke="midnightblue" points="1465.52,-16.54 1455.01,-17.89 1464.07,-23.39 1465.52,-16.54"/>
</g>
<!-- Node28&#45;&gt;Node21 -->
<g id="edge31" class="edge">
<title>Node28&#45;&gt;Node21</title>
<path fill="none" stroke="midnightblue" d="M1770.04,-56.32C1760.87,-48.34 1747.06,-36.31 1735.97,-26.65"/>
<polygon fill="midnightblue" stroke="midnightblue" points="1737.98,-23.76 1728.14,-19.83 1733.38,-29.04 1737.98,-23.76"/>
</g>
<!-- Node28&#45;&gt;Node22 -->
<g id="edge32" class="edge">
<title>Node28&#45;&gt;Node22</title>
<path fill="none" stroke="midnightblue" d="M1749.36,-62.87C1685.06,-58.11 1531.28,-45.11 1392.49,-19.83"/>
<polygon fill="midnightblue" stroke="midnightblue" points="1392.99,-16.37 1382.52,-17.99 1391.72,-23.25 1392.99,-16.37"/>
</g>
<!-- Node28&#45;&gt;Node23 -->
<g id="edge30" class="edge">
<title>Node28&#45;&gt;Node23</title>
<path fill="none" stroke="midnightblue" d="M1760.19,-56.44C1739.71,-47.6 1707.52,-33.69 1684.14,-23.59"/>
<polygon fill="midnightblue" stroke="midnightblue" points="1685.28,-20.27 1674.71,-19.52 1682.51,-26.7 1685.28,-20.27"/>
</g>
<!-- Node29 -->
<g id="node29" class="node">
<title>Node29</title>
<g id="a_node29"><a xlink:title=" ">
<polygon fill="none" stroke="#bfbfbf" points="1818.5,-0.5 1818.5,-19.5 1877.5,-19.5 1877.5,-0.5 1818.5,-0.5"/>
<text text-anchor="middle" x="1848" y="-7.5" font-family="Helvetica,sans-Serif" font-size="10.00">functional</text>
</a>
</g>
</g>
<!-- Node28&#45;&gt;Node29 -->
<g id="edge33" class="edge">
<title>Node28&#45;&gt;Node29</title>
<path fill="none" stroke="midnightblue" d="M1790.93,-56.32C1801.17,-48.18 1816.72,-35.84 1829,-26.09"/>
<polygon fill="midnightblue" stroke="midnightblue" points="1831.22,-28.79 1836.88,-19.83 1826.87,-23.31 1831.22,-28.79"/>
</g>
<!-- Node30 -->
<g id="node30" class="node">
<title>Node30</title>
<g id="a_node30"><a xlink:title=" ">
<polygon fill="none" stroke="#bfbfbf" points="1759.5,-0.5 1759.5,-19.5 1800.5,-19.5 1800.5,-0.5 1759.5,-0.5"/>
<text text-anchor="middle" x="1780" y="-7.5" font-family="Helvetica,sans-Serif" font-size="10.00">string</text>
</a>
</g>
</g>
<!-- Node28&#45;&gt;Node30 -->
<g id="edge34" class="edge">
<title>Node28&#45;&gt;Node30</title>
<path fill="none" stroke="midnightblue" d="M1780,-56.08C1780,-49.01 1780,-38.86 1780,-29.99"/>
<polygon fill="midnightblue" stroke="midnightblue" points="1783.5,-29.75 1780,-19.75 1776.5,-29.75 1783.5,-29.75"/>
</g>
<!-- Node31 -->
<g id="node31" class="node">
<title>Node31</title>
<g id="a_node31"><a xlink:title=" ">
<polygon fill="none" stroke="#bfbfbf" points="1896,-0.5 1896,-19.5 1942,-19.5 1942,-0.5 1896,-0.5"/>
<text text-anchor="middle" x="1919" y="-7.5" font-family="Helvetica,sans-Serif" font-size="10.00">cstdint</text>
</a>
</g>
</g>
<!-- Node28&#45;&gt;Node31 -->
<g id="edge35" class="edge">
<title>Node28&#45;&gt;Node31</title>
<path fill="none" stroke="midnightblue" d="M1802.02,-56.44C1825.1,-47.48 1861.56,-33.31 1887.64,-23.18"/>
<polygon fill="midnightblue" stroke="midnightblue" points="1889.02,-26.4 1897.08,-19.52 1886.49,-19.88 1889.02,-26.4"/>
</g>
<!-- Node32 -->
<g id="node32" class="node">
<title>Node32</title>
<g id="a_node32"><a xlink:title=" ">
<polygon fill="none" stroke="#bfbfbf" points="1960.5,-0.5 1960.5,-19.5 2001.5,-19.5 2001.5,-0.5 1960.5,-0.5"/>
<text text-anchor="middle" x="1981" y="-7.5" font-family="Helvetica,sans-Serif" font-size="10.00">ctime</text>
</a>
</g>
</g>
<!-- Node28&#45;&gt;Node32 -->
<g id="edge36" class="edge">
<title>Node28&#45;&gt;Node32</title>
<path fill="none" stroke="midnightblue" d="M1810.67,-57.27C1843.01,-49.03 1895.7,-35.42 1950.48,-20.07"/>
<polygon fill="midnightblue" stroke="midnightblue" points="1951.69,-23.37 1960.37,-17.29 1949.8,-16.63 1951.69,-23.37"/>
</g>
<!-- Node33 -->
<g id="node33" class="node">
<title>Node33</title>
<g id="a_node33"><a xlink:title=" ">
<polygon fill="none" stroke="#bfbfbf" points="2019.5,-0.5 2019.5,-19.5 2054.5,-19.5 2054.5,-0.5 2019.5,-0.5"/>
<text text-anchor="middle" x="2037" y="-7.5" font-family="Helvetica,sans-Serif" font-size="10.00">ratio</text>
</a>
</g>
</g>
<!-- Node28&#45;&gt;Node33 -->
<g id="edge37" class="edge">
<title>Node28&#45;&gt;Node33</title>
<path fill="none" stroke="midnightblue" d="M1810.58,-60.45C1853.28,-53.8 1933.27,-40.23 2009.7,-20.06"/>
<polygon fill="midnightblue" stroke="midnightblue" points="2010.73,-23.41 2019.48,-17.44 2008.92,-16.65 2010.73,-23.41"/>
</g>
<!-- Node34 -->
<g id="node34" class="node">
<title>Node34</title>
<g id="a_node34"><a xlink:title=" ">
<polygon fill="none" stroke="#bfbfbf" points="2073,-0.5 2073,-19.5 2123,-19.5 2123,-0.5 2073,-0.5"/>
<text text-anchor="middle" x="2098" y="-7.5" font-family="Helvetica,sans-Serif" font-size="10.00">fstream</text>
</a>
</g>
</g>
<!-- Node28&#45;&gt;Node34 -->
<g id="edge38" class="edge">
<title>Node28&#45;&gt;Node34</title>
<path fill="none" stroke="midnightblue" d="M1810.87,-61.16C1861.49,-54.63 1965.46,-40.27 2062.81,-20.07"/>
<polygon fill="midnightblue" stroke="midnightblue" points="2063.75,-23.45 2072.82,-17.97 2062.31,-16.6 2063.75,-23.45"/>
</g>
<!-- Node35&#45;&gt;Node4 -->
<g id="edge47" class="edge">
<title>Node35&#45;&gt;Node4</title>
<path fill="none" stroke="midnightblue" d="M1370.09,-56.32C1380.49,-48.18 1396.26,-35.84 1408.72,-26.09"/>
<polygon fill="midnightblue" stroke="midnightblue" points="1410.99,-28.75 1416.71,-19.83 1406.68,-23.24 1410.99,-28.75"/>
</g>
<!-- Node35&#45;&gt;Node7 -->
<g id="edge42" class="edge">
<title>Node35&#45;&gt;Node7</title>
<path fill="none" stroke="midnightblue" d="M1338.08,-56.44C1316.26,-47.52 1281.85,-33.44 1257.11,-23.32"/>
<polygon fill="midnightblue" stroke="midnightblue" points="1258.4,-20.06 1247.82,-19.52 1255.75,-26.54 1258.4,-20.06"/>
</g>
<!-- Node35&#45;&gt;Node11 -->
<g id="edge43" class="edge">
<title>Node35&#45;&gt;Node11</title>
<path fill="none" stroke="midnightblue" d="M1348.07,-56.32C1337.83,-48.18 1322.28,-35.84 1310,-26.09"/>
<polygon fill="midnightblue" stroke="midnightblue" points="1312.13,-23.31 1302.12,-19.83 1307.78,-28.79 1312.13,-23.31"/>
</g>
<!-- Node35&#45;&gt;Node16 -->
<g id="edge45" class="edge">
<title>Node35&#45;&gt;Node16</title>
<path fill="none" stroke="midnightblue" d="M1327.47,-56.44C1291.4,-46.66 1232.52,-30.68 1195.05,-20.51"/>
<polygon fill="midnightblue" stroke="midnightblue" points="1195.65,-17.05 1185.08,-17.81 1193.82,-23.8 1195.65,-17.05"/>
</g>
<!-- Node35&#45;&gt;Node30 -->
<g id="edge41" class="edge">
<title>Node35&#45;&gt;Node30</title>
<path fill="none" stroke="midnightblue" d="M1408.51,-62.12C1481.27,-57.27 1621.35,-45.58 1749.48,-19.73"/>
<polygon fill="midnightblue" stroke="midnightblue" points="1750.37,-23.12 1759.47,-17.68 1748.97,-16.26 1750.37,-23.12"/>
</g>
<!-- Node36 -->
<g id="node36" class="node">
<title>Node36</title>
<g id="a_node36"><a xlink:title=" ">
<polygon fill="none" stroke="#bfbfbf" points="1473.5,-0.5 1473.5,-19.5 1516.5,-19.5 1516.5,-0.5 1473.5,-0.5"/>
<text text-anchor="middle" x="1495" y="-7.5" font-family="Helvetica,sans-Serif" font-size="10.00">fcntl.h</text>
</a>
</g>
</g>
<!-- Node35&#45;&gt;Node36 -->
<g id="edge44" class="edge">
<title>Node35&#45;&gt;Node36</title>
<path fill="none" stroke="midnightblue" d="M1380.55,-56.44C1403.03,-47.52 1438.49,-33.44 1463.98,-23.32"/>
<polygon fill="midnightblue" stroke="midnightblue" points="1465.55,-26.46 1473.55,-19.52 1462.97,-19.95 1465.55,-26.46"/>
</g>
<!-- Node37 -->
<g id="node37" class="node">
<title>Node37</title>
<g id="a_node37"><a xlink:title=" ">
<polygon fill="none" stroke="#bfbfbf" points="1535,-0.5 1535,-19.5 1615,-19.5 1615,-0.5 1535,-0.5"/>
<text text-anchor="middle" x="1575" y="-7.5" font-family="Helvetica,sans-Serif" font-size="10.00">linux/joystick.h</text>
</a>
</g>
</g>
<!-- Node35&#45;&gt;Node37 -->
<g id="edge46" class="edge">
<title>Node35&#45;&gt;Node37</title>
<path fill="none" stroke="midnightblue" d="M1393.23,-56.44C1430.51,-47.12 1490.27,-32.18 1531.01,-22"/>
<polygon fill="midnightblue" stroke="midnightblue" points="1532.08,-25.34 1540.93,-19.52 1530.38,-18.55 1532.08,-25.34"/>
</g>
</g>
</svg>
        <g id="navigator" transform="translate(0 0)" fill="#404254">
                <rect fill="#f2f5e9" fill-opacity="0.5" stroke="#606060" stroke-width=".5" x="0" y="0" width="60" height="60"/>
                <use id="zoomplus" xlink:href="#zoomPlus" x="17" y="9" onmousedown="handleZoom(evt,'in')"/>
                <use id="zoomminus" xlink:href="#zoomMin" x="42" y="9" onmousedown="handleZoom(evt,'out')"/>
                <use id="reset" xlink:href="#resetDef" x="30" y="36" onmousedown="handleReset()"/>
                <g id="arrowUp" xlink:href="#dirArrow" transform="translate(30 24)" onmousedown="handlePan(0,-1)">
                  <use xlink:href="#rim" fill="#404040">
                        <set attributeName="fill" to="#808080" begin="arrowUp.mouseover" end="arrowUp.mouseout"/>
                  </use>
                  <path fill="none" stroke="white" stroke-width="1.5" d="M0,-3.0v7 M-2.5,-0.5L0,-3.0L2.5,-0.5"/>
                </g>
                <g id="arrowRight" xlink:href="#dirArrow" transform="rotate(90) translate(36 -43)" onmousedown="handlePan(1,0)">
                  <use xlink:href="#rim" fill="#404040">
                        <set attributeName="fill" to="#808080" begin="arrowRight.mouseover" end="arrowRight.mouseout"/>
                  </use>
                  <path fill="none" stroke="white" stroke-width="1.5" d="M0,-3.0v7 M-2.5,-0.5L0,-3.0L2.5,-0.5"/>
                </g>
                <g id="arrowDown" xlink:href="#dirArrow" transform="rotate(180) translate(-30 -48)" onmousedown="handlePan(0,1)">
                  <use xlink:href="#rim" fill="#404040">
                        <set attributeName="fill" to="#808080" begin="arrowDown.mouseover" end="arrowDown.mouseout"/>
                  </use>
                  <path fill="none" stroke="white" stroke-width="1.5" d="M0,-3.0v7 M-2.5,-0.5L0,-3.0L2.5,-0.5"/>
                </g>
                <g id="arrowLeft" xlink:href="#dirArrow" transform="rotate(270) translate(-36 17)" onmousedown="handlePan(-1,0)">
                  <use xlink:href="#rim" fill="#404040">
                        <set attributeName="fill" to="#808080" begin="arrowLeft.mouseover" end="arrowLeft.mouseout"/>
                  </use>
                  <path fill="none" stroke="white" stroke-width="1.5" d="M0,-3.0v7 M-2.5,-0.5L0,-3.0L2.5,-0.5"/>
                </g>
        </g>
        <svg viewBox="0 0 15 15" width="100%" height="30px" preserveAspectRatio="xMaxYMin meet">
         <g id="arrow_out" transform="scale(0.3 0.3)">
          <a xlink:href="main_8cpp__incl_org.svg" target="_base">
           <rect id="button" ry="5" rx="5" y="6" x="6" height="38" width="38"
                fill="#f2f5e9" fill-opacity="0.5" stroke="#606060" stroke-width="1.0"/>
           <path id="arrow"
             d="M 11.500037,31.436501 C 11.940474,20.09759 22.043105,11.32322 32.158766,21.979434 L 37.068811,17.246167 C 37.068811,17.246167 37.088388,32 37.088388,32 L 22.160133,31.978069 C 22.160133,31.978069 26.997745,27.140456 26.997745,27.140456 C 18.528582,18.264221 13.291696,25.230495 11.500037,31.436501 z"
             style="fill:#404040;"/>
          </a>
         </g>
        </svg>
</svg>
