<?xml version="1.0" encoding="UTF-8" standalone="no"?>
<!DOCTYPE svg PUBLIC "-//W3C//DTD SVG 1.1//EN"
 "http://www.w3.org/Graphics/SVG/1.1/DTD/svg11.dtd">
<!-- Generated by graphviz version 2.43.0 (0)
 -->
<!-- Title: include/object_dictionary.hpp Pages: 1 -->
<svg width="329pt" height="308pt"
 viewBox="0.00 0.00 328.50 308.00" xmlns="http://www.w3.org/2000/svg" xmlns:xlink="http://www.w3.org/1999/xlink">
<g id="graph0" class="graph" transform="scale(1 1) rotate(0) translate(4 304)">
<title>include/object_dictionary.hpp</title>
<!-- Node1 -->
<g id="node1" class="node">
<title>Node1</title>
<g id="a_node1"><a xlink:title=" ">
<polygon fill="#bfbfbf" stroke="black" points="99,-280.5 99,-299.5 257,-299.5 257,-280.5 99,-280.5"/>
<text text-anchor="middle" x="178" y="-287.5" font-family="Helvetica,sans-Serif" font-size="10.00">include/object_dictionary.hpp</text>
</a>
</g>
</g>
<!-- Node2 -->
<g id="node2" class="node">
<title>Node2</title>
<g id="a_node2"><a xlink:href="ecat__globals_8hpp.html" target="_top" xlink:title=" ">
<polygon fill="none" stroke="black" points="109.5,-224.5 109.5,-243.5 246.5,-243.5 246.5,-224.5 109.5,-224.5"/>
<text text-anchor="middle" x="178" y="-231.5" font-family="Helvetica,sans-Serif" font-size="10.00">include/ecat_globals.hpp</text>
</a>
</g>
</g>
<!-- Node1&#45;&gt;Node2 -->
<g id="edge1" class="edge">
<title>Node1&#45;&gt;Node2</title>
<path fill="none" stroke="midnightblue" d="M178,-269.8C178,-260.91 178,-250.78 178,-243.75"/>
<polygon fill="midnightblue" stroke="midnightblue" points="174.5,-270.08 178,-280.08 181.5,-270.08 174.5,-270.08"/>
</g>
<!-- Node3 -->
<g id="node3" class="node">
<title>Node3</title>
<g id="a_node3"><a xlink:href="ecat__node_8hpp.html" target="_top" xlink:title=" ">
<polygon fill="none" stroke="black" points="69,-112.5 69,-131.5 195,-131.5 195,-112.5 69,-112.5"/>
<text text-anchor="middle" x="132" y="-119.5" font-family="Helvetica,sans-Serif" font-size="10.00">include/ecat_node.hpp</text>
</a>
</g>
</g>
<!-- Node2&#45;&gt;Node3 -->
<g id="edge2" class="edge">
<title>Node2&#45;&gt;Node3</title>
<path fill="none" stroke="midnightblue" d="M166.27,-215.82C161.07,-207.65 155.2,-197.6 151,-188 142.52,-168.61 136.57,-144.35 133.79,-131.66"/>
<polygon fill="midnightblue" stroke="midnightblue" points="163.5,-217.97 171.92,-224.4 169.34,-214.12 163.5,-217.97"/>
</g>
<!-- Node8 -->
<g id="node8" class="node">
<title>Node8</title>
<g id="a_node8"><a xlink:href="ecat__slave_8hpp.html" target="_top" xlink:title=" ">
<polygon fill="none" stroke="black" points="160,-168.5 160,-187.5 288,-187.5 288,-168.5 160,-168.5"/>
<text text-anchor="middle" x="224" y="-175.5" font-family="Helvetica,sans-Serif" font-size="10.00">include/ecat_slave.hpp</text>
</a>
</g>
</g>
<!-- Node2&#45;&gt;Node8 -->
<g id="edge8" class="edge">
<title>Node2&#45;&gt;Node8</title>
<path fill="none" stroke="midnightblue" d="M192.11,-216.43C200.18,-206.97 209.96,-195.48 216.55,-187.75"/>
<polygon fill="midnightblue" stroke="midnightblue" points="189.42,-214.2 185.6,-224.08 194.75,-218.74 189.42,-214.2"/>
</g>
<!-- Node4 -->
<g id="node4" class="node">
<title>Node4</title>
<g id="a_node4"><a xlink:href="ecat__node_8cpp.html" target="_top" xlink:title=" ">
<polygon fill="none" stroke="black" points="0,-56.5 0,-75.5 104,-75.5 104,-56.5 0,-56.5"/>
<text text-anchor="middle" x="52" y="-63.5" font-family="Helvetica,sans-Serif" font-size="10.00">src/ecat_node.cpp</text>
</a>
</g>
</g>
<!-- Node3&#45;&gt;Node4 -->
<g id="edge3" class="edge">
<title>Node3&#45;&gt;Node4</title>
<path fill="none" stroke="midnightblue" d="M110.7,-106.62C96.08,-96.76 77.17,-83.99 64.82,-75.65"/>
<polygon fill="midnightblue" stroke="midnightblue" points="108.9,-109.63 119.15,-112.32 112.82,-103.83 108.9,-109.63"/>
</g>
<!-- Node5 -->
<g id="node5" class="node">
<title>Node5</title>
<g id="a_node5"><a xlink:href="main_8cpp.html" target="_top" xlink:title=" ">
<polygon fill="none" stroke="black" points="92.5,-0.5 92.5,-19.5 171.5,-19.5 171.5,-0.5 92.5,-0.5"/>
<text text-anchor="middle" x="132" y="-7.5" font-family="Helvetica,sans-Serif" font-size="10.00">src/main.cpp</text>
</a>
</g>
</g>
<!-- Node3&#45;&gt;Node5 -->
<g id="edge4" class="edge">
<title>Node3&#45;&gt;Node5</title>
<path fill="none" stroke="midnightblue" d="M132,-102.35C132,-78.25 132,-37.31 132,-19.59"/>
<polygon fill="midnightblue" stroke="midnightblue" points="128.5,-102.37 132,-112.37 135.5,-102.37 128.5,-102.37"/>
</g>
<!-- Node6 -->
<g id="node6" class="node">
<title>Node6</title>
<g id="a_node6"><a xlink:href="ecat__lifecycle_8hpp.html" target="_top" xlink:title=" ">
<polygon fill="none" stroke="black" points="160.5,-56.5 160.5,-75.5 303.5,-75.5 303.5,-56.5 160.5,-56.5"/>
<text text-anchor="middle" x="232" y="-63.5" font-family="Helvetica,sans-Serif" font-size="10.00">include/ecat_lifecycle.hpp</text>
</a>
</g>
</g>
<!-- Node3&#45;&gt;Node6 -->
<g id="edge5" class="edge">
<title>Node3&#45;&gt;Node6</title>
<path fill="none" stroke="midnightblue" d="M157.09,-107.45C175.55,-97.48 200.1,-84.23 215.97,-75.65"/>
<polygon fill="midnightblue" stroke="midnightblue" points="155.2,-104.49 148.07,-112.32 158.53,-110.65 155.2,-104.49"/>
</g>
<!-- Node6&#45;&gt;Node5 -->
<g id="edge7" class="edge">
<title>Node6&#45;&gt;Node5</title>
<path fill="none" stroke="midnightblue" d="M206.91,-51.45C188.45,-41.48 163.9,-28.23 148.03,-19.65"/>
<polygon fill="midnightblue" stroke="midnightblue" points="205.47,-54.65 215.93,-56.32 208.8,-48.49 205.47,-54.65"/>
</g>
<!-- Node7 -->
<g id="node7" class="node">
<title>Node7</title>
<g id="a_node7"><a xlink:href="ecat__lifecycle_8cpp.html" target="_top" xlink:title=" ">
<polygon fill="none" stroke="black" points="190,-0.5 190,-19.5 312,-19.5 312,-0.5 190,-0.5"/>
<text text-anchor="middle" x="251" y="-7.5" font-family="Helvetica,sans-Serif" font-size="10.00">src/ecat_lifecycle.cpp</text>
</a>
</g>
</g>
<!-- Node6&#45;&gt;Node7 -->
<g id="edge6" class="edge">
<title>Node6&#45;&gt;Node7</title>
<path fill="none" stroke="midnightblue" d="M238.55,-46.4C241.72,-37.36 245.39,-26.94 247.92,-19.75"/>
<polygon fill="midnightblue" stroke="midnightblue" points="235.15,-45.49 235.14,-56.08 241.76,-47.81 235.15,-45.49"/>
</g>
<!-- Node8&#45;&gt;Node3 -->
<g id="edge10" class="edge">
<title>Node8&#45;&gt;Node3</title>
<path fill="none" stroke="midnightblue" d="M200.45,-163.18C183.52,-153.24 161.22,-140.15 146.74,-131.65"/>
<polygon fill="midnightblue" stroke="midnightblue" points="198.82,-166.28 209.22,-168.32 202.37,-160.24 198.82,-166.28"/>
</g>
<!-- Node9 -->
<g id="node9" class="node">
<title>Node9</title>
<g id="a_node9"><a xlink:href="ecat__slave_8cpp.html" target="_top" xlink:title=" ">
<polygon fill="none" stroke="black" points="213.5,-112.5 213.5,-131.5 320.5,-131.5 320.5,-112.5 213.5,-112.5"/>
<text text-anchor="middle" x="267" y="-119.5" font-family="Helvetica,sans-Serif" font-size="10.00">src/ecat_slave.cpp</text>
</a>
</g>
</g>
<!-- Node8&#45;&gt;Node9 -->
<g id="edge9" class="edge">
<title>Node8&#45;&gt;Node9</title>
<path fill="none" stroke="midnightblue" d="M237.42,-160.14C244.91,-150.74 253.94,-139.4 260.03,-131.75"/>
<polygon fill="midnightblue" stroke="midnightblue" points="234.59,-158.08 231.1,-168.08 240.07,-162.44 234.59,-158.08"/>
</g>
</g>
</svg>
