<?xml version="1.0" encoding="UTF-8" standalone="no"?>
<!DOCTYPE svg PUBLIC "-//W3C//DTD SVG 1.1//EN"
 "http://www.w3.org/Graphics/SVG/1.1/DTD/svg11.dtd">
<!-- Generated by graphviz version 2.43.0 (0)
 -->
<!-- Title: include/xboxController.hpp Pages: 1 -->
<svg width="232pt" height="84pt"
 viewBox="0.00 0.00 231.50 84.00" xmlns="http://www.w3.org/2000/svg" xmlns:xlink="http://www.w3.org/1999/xlink">
<g id="graph0" class="graph" transform="scale(1 1) rotate(0) translate(4 80)">
<title>include/xboxController.hpp</title>
<!-- Node1 -->
<g id="node1" class="node">
<title>Node1</title>
<g id="a_node1"><a xlink:title=" ">
<polygon fill="#bfbfbf" stroke="black" points="25.5,-56.5 25.5,-75.5 173.5,-75.5 173.5,-56.5 25.5,-56.5"/>
<text text-anchor="middle" x="99.5" y="-63.5" font-family="Helvetica,sans-Serif" font-size="10.00">include/xboxController.hpp</text>
</a>
</g>
</g>
<!-- Node2 -->
<g id="node2" class="node">
<title>Node2</title>
<g id="a_node2"><a xlink:href="main_8cpp.html" target="_top" xlink:title=" ">
<polygon fill="none" stroke="black" points="0,-0.5 0,-19.5 79,-19.5 79,-0.5 0,-0.5"/>
<text text-anchor="middle" x="39.5" y="-7.5" font-family="Helvetica,sans-Serif" font-size="10.00">src/main.cpp</text>
</a>
</g>
</g>
<!-- Node1&#45;&gt;Node2 -->
<g id="edge1" class="edge">
<title>Node1&#45;&gt;Node2</title>
<path fill="none" stroke="midnightblue" d="M82.32,-49.54C71.62,-39.91 58.24,-27.87 49.32,-19.83"/>
<polygon fill="midnightblue" stroke="midnightblue" points="80.09,-52.24 89.86,-56.32 84.77,-47.03 80.09,-52.24"/>
</g>
<!-- Node3 -->
<g id="node3" class="node">
<title>Node3</title>
<g id="a_node3"><a xlink:href="xboxController_8cpp.html" target="_top" xlink:title=" ">
<polygon fill="none" stroke="black" points="97.5,-0.5 97.5,-19.5 223.5,-19.5 223.5,-0.5 97.5,-0.5"/>
<text text-anchor="middle" x="160.5" y="-7.5" font-family="Helvetica,sans-Serif" font-size="10.00">src/xboxController.cpp</text>
</a>
</g>
</g>
<!-- Node1&#45;&gt;Node3 -->
<g id="edge2" class="edge">
<title>Node1&#45;&gt;Node3</title>
<path fill="none" stroke="midnightblue" d="M116.97,-49.54C127.84,-39.91 141.44,-27.87 150.52,-19.83"/>
<polygon fill="midnightblue" stroke="midnightblue" points="114.47,-47.07 109.3,-56.32 119.11,-52.32 114.47,-47.07"/>
</g>
</g>
</svg>
